<mxfile host="app.diagrams.net" modified="2022-02-07T04:01:41.225Z" agent="5.0 (X11)" etag="CVnrLn8jpiYwIgnqtJ8_" version="16.5.3" type="github">
  <diagram id="6a731a19-8d31-9384-78a2-239565b7b9f0" name="Page-1">
    <mxGraphModel dx="1350" dy="793" grid="0" gridSize="10" guides="1" tooltips="1" connect="1" arrows="1" fold="1" page="1" pageScale="1" pageWidth="1169" pageHeight="827" background="none" math="1" shadow="1">
      <root>
        <mxCell id="0" />
        <mxCell id="1" parent="0" />
        <mxCell id="VrKKvqY3dBjmQD-Xjk8_-2180" value="" style="rounded=1;whiteSpace=wrap;html=1;dashed=1;strokeWidth=2;fontFamily=Helvetica;fontSize=14;opacity=75;verticalAlign=top;fontStyle=1;dashPattern=1 1;" parent="1" vertex="1">
          <mxGeometry x="218" y="120" width="941" height="694" as="geometry" />
        </mxCell>
        <mxCell id="VrKKvqY3dBjmQD-Xjk8_-2174" value="" style="html=1;shadow=0;dashed=0;align=center;verticalAlign=middle;shape=mxgraph.arrows2.arrow;dy=0.6;dx=40;notch=0;fontColor=#ffffff;strokeColor=#006EAF;fillColor=#1ba1e2;" parent="1" vertex="1">
          <mxGeometry x="730" y="312" width="59" height="22" as="geometry" />
        </mxCell>
        <mxCell id="VrKKvqY3dBjmQD-Xjk8_-2197" value="" style="html=1;shadow=0;dashed=0;align=center;verticalAlign=middle;shape=mxgraph.arrows2.arrow;dy=0.6;dx=40;notch=0;fontColor=#ffffff;strokeColor=#006EAF;fillColor=#1ba1e2;" parent="1" vertex="1">
          <mxGeometry x="548" y="312" width="59" height="22" as="geometry" />
        </mxCell>
        <mxCell id="VrKKvqY3dBjmQD-Xjk8_-2198" value="" style="html=1;shadow=0;dashed=0;align=center;verticalAlign=middle;shape=mxgraph.arrows2.arrow;dy=0.6;dx=40;notch=0;fontColor=#ffffff;strokeColor=#006EAF;fillColor=#1ba1e2;" parent="1" vertex="1">
          <mxGeometry x="358.5" y="312" width="59" height="22" as="geometry" />
        </mxCell>
        <mxCell id="VrKKvqY3dBjmQD-Xjk8_-2199" value="" style="html=1;shadow=0;dashed=0;align=center;verticalAlign=middle;shape=mxgraph.arrows2.arrow;dy=0.6;dx=40;notch=0;strokeColor=#006EAF;fillColor=#1ba1e2;fontColor=#ffffff;" parent="1" vertex="1">
          <mxGeometry x="199" y="314" width="59" height="22" as="geometry" />
        </mxCell>
        <mxCell id="NPqBEZIJGz9gFvAMpIGe-2078" style="edgeStyle=orthogonalEdgeStyle;shape=flexArrow;rounded=0;orthogonalLoop=1;jettySize=auto;html=1;exitX=1;exitY=0.75;exitDx=0;exitDy=0;entryX=0;entryY=0.25;entryDx=0;entryDy=0;fontSize=20;fillColor=#1ba1e2;strokeColor=#006EAF;" edge="1" parent="1" source="2019" target="2068">
          <mxGeometry relative="1" as="geometry" />
        </mxCell>
        <mxCell id="2019" value="" style="rounded=1;whiteSpace=wrap;html=1;dashed=1;strokeWidth=2;fontFamily=Verdana;fontSize=12;gradientColor=none;dashPattern=1 2;" parent="1" vertex="1">
          <mxGeometry x="40" y="120" width="159" height="670" as="geometry" />
        </mxCell>
        <mxCell id="2025" value="&lt;div&gt;DonnÃ©es&lt;/div&gt;" style="whiteSpace=wrap;html=1;dashed=1;strokeColor=none;strokeWidth=2;fillColor=#3399FF;fontFamily=Helvetica;fontSize=18;fontColor=#FFFFFF;fontStyle=1;rounded=1;" parent="1" vertex="1">
          <mxGeometry x="53.370000000000005" y="126" width="132.51" height="60" as="geometry" />
        </mxCell>
        <mxCell id="2047" value="&lt;font color=&quot;#030303&quot;&gt;Architecture Conceptuelle&lt;/font&gt;" style="text;html=1;strokeColor=none;fillColor=none;align=center;verticalAlign=middle;whiteSpace=wrap;overflow=hidden;dashed=1;fontSize=36;fontColor=#FFFFFF;fontFamily=Helvetica;fontStyle=1" parent="1" vertex="1">
          <mxGeometry x="40" y="50" width="1060" height="50" as="geometry" />
        </mxCell>
        <mxCell id="2076" value="" style="arrow;html=1;endArrow=block;endFill=1;strokeColor=none;strokeWidth=4;fontFamily=Helvetica;fontSize=36;fontColor=#FFB366;fillColor=#FFB366;opacity=100" parent="1" edge="1">
          <mxGeometry width="100" height="100" relative="1" as="geometry">
            <mxPoint x="347" y="283" as="sourcePoint" />
            <mxPoint x="363" y="283" as="targetPoint" />
          </mxGeometry>
        </mxCell>
        <mxCell id="2048" value="&lt;div&gt;DATA&lt;/div&gt;&lt;div&gt;LAKE&lt;/div&gt;" style="rounded=1;whiteSpace=wrap;html=1;strokeColor=default;strokeWidth=2;fillColor=#FFFFFF;fontFamily=Helvetica;fontSize=14;fontColor=#FFB366;opacity=75;verticalAlign=top;fontStyle=1;glass=0;shadow=0;sketch=0;" parent="1" vertex="1">
          <mxGeometry x="405" y="190" width="150" height="270" as="geometry" />
        </mxCell>
        <mxCell id="2059" value="&lt;div&gt;DATA&lt;/div&gt;&lt;div&gt;WAREHOUSE&lt;/div&gt;" style="rounded=1;whiteSpace=wrap;html=1;strokeColor=default;strokeWidth=2;fillColor=#FFFFFF;fontFamily=Helvetica;fontSize=14;fontColor=#FFB366;opacity=75;verticalAlign=top;fontStyle=1" parent="1" vertex="1">
          <mxGeometry x="770" y="186" width="150" height="274" as="geometry" />
        </mxCell>
        <mxCell id="NPqBEZIJGz9gFvAMpIGe-2086" style="edgeStyle=orthogonalEdgeStyle;rounded=0;orthogonalLoop=1;jettySize=auto;html=1;exitX=0.5;exitY=0;exitDx=0;exitDy=0;entryX=0.5;entryY=1;entryDx=0;entryDy=0;fontSize=20;fillColor=#1ba1e2;shape=flexArrow;strokeColor=#006EAF;" edge="1" parent="1" source="2068" target="VrKKvqY3dBjmQD-Xjk8_-2140">
          <mxGeometry relative="1" as="geometry" />
        </mxCell>
        <mxCell id="2068" value="TRAITEMENT DISTRIBUE" style="rounded=1;whiteSpace=wrap;html=1;strokeColor=default;strokeWidth=2;fillColor=#FFFFFF;fontFamily=Helvetica;fontSize=14;fontColor=#FFB366;opacity=75;verticalAlign=top;fontStyle=1" parent="1" vertex="1">
          <mxGeometry x="597" y="570" width="137" height="210" as="geometry" />
        </mxCell>
        <mxCell id="VrKKvqY3dBjmQD-Xjk8_-2087" value="&lt;font color=&quot;#FFB570&quot;&gt;ETL&lt;/font&gt;" style="rounded=1;whiteSpace=wrap;html=1;strokeWidth=2;fontFamily=Helvetica;fontSize=14;opacity=75;verticalAlign=top;fontStyle=1;gradientColor=none;shadow=0;glass=0;strokeColor=default;" parent="1" vertex="1">
          <mxGeometry x="247" y="190" width="126.25" height="271" as="geometry" />
        </mxCell>
        <mxCell id="VrKKvqY3dBjmQD-Xjk8_-2122" value="" style="shape=image;verticalLabelPosition=bottom;labelBackgroundColor=default;verticalAlign=top;aspect=fixed;imageAspect=0;image=data:image/png,iVBORw0KGgoAAAANSUhEUgAAAOEAAADhCAMAAAAJbSJIAAAAk1BMVEX/////bXD48+//a27/aWz/c3b49vL/Z2r/d3n/bnH6zcv4+fX+hof52NX53Nn46+j/Ymb55eL7srH509D9oKD9jY7/4+P48Oz/zM3/7u7/3t//+Pj/e37+f4H54N356ub/q639lJX/xcb7u7r/6ur/19j/mpz/zc77ubf/r7D/kZP9nZ7+iYr6ycf8pKT/trj/XGDRvrxwAAALMUlEQVR4nO2d6YKivBKGWysYcEVFbBpRFqVFEef+r+5kYbpVUHtJIPOdvH9mbAF5qKSqkkDx8qKlpaWlpaWlpaWlpaWlpaWlpaWlpaWlpaWlpaWlpaWlpaWlpaWl9f8l3/c9b+vu3uP4nLy+v7me55G/tX1aQuR77tt7UhxMbFNhIvYf21ik59c3d+u1fYa/kvf2eo5MIFwIOjcChAirkTvxzv03jenv4ixdAWGrwF1xYtvMnWS3bft8v6ttkgYWqlruDiVeLbJd2+f8Dfk7Z2g8tl2VsrMaJv9In3RD04Jv4X1AGvl722f/VP5b0cE/wPsLaQevSrsd0jwB/xSvhLTzV2UbqwA+KmQvFGV0Q0sAH2NEUaxeW/Xj/MfdrypsFKoFj11qIGF8RACrTCUz+oUp0IAlY2eljhl3hqAOeI2IcKiGGf1YBh9jxJHbNh2RW3wt+/yR8LD9JGe3kAhIAofRtsOJA6EutCrAaavhPzElAxLhQ4udMbRkttC/QovWEB1ZTvQWcfjWCp8v04neIFptuFTPaQyQutTmEb1m+uAnYtMpnJ81CkgQVw3Pxp0bBiRBY9EoYix8KPFcKGowu5GWaz9Ug9mNa7QBSBCzhgC9QzuAHTBeGwH0m40Tl0LDRvK32GwLkGbhDXibt2F7gAQxlA7oH+WPlx4IsPTcJmklUFwgmpLbaVuB4gIxlEsY4ZYBiRGlttNd64AkZKQS26k/bNXNcIERyyM8KwBI522kjTLcoG03w4XOstppqAZgB2SNhl0VeiGTLaknnjuK2JAYUcpI0V2oYkJZRkxaGzRVBSsJvmarkAnlGPFVJcAOCoQD+o4CCdunAIQvZXgK9UIqKEQTnpUyISEMBPsaX5GE7UPC829XMRMSX3MUS5ipRyh4ZnGlWCMlzdRKRAKq10hFTyzGSoV7LnQQOYZKv08IiOknd3zfHAeAH+TmQEKnpPzvd0MIDlEUpUeniH4HGETHY0EUFrcLQlhgvNh9f6kCJ71etzcg2vxqihXPBn81vmlIWOANYT8YOKEo6U+6VNNfreRAPotHPXqc3i2hyBmp4w/OEVmrmQDCDmAj7/fqCMEQln379UPDJ/fTABqOe78npIzFso6wYwtzNW7tghp28ieIw5EQQpKgTWoJxbmaXV3ajfLJ/nEeIJ/QEeVq4hpvSHL73qwpwrSeUNwKxrkG0Momg8YIo2ktIQSiJhWziqOBTjHtVWwI1wlMLeGDHAdqvmN/Q+kdQhBE6B9vSbC1J7/Zy/7YdrkkTJ8FRWawMjH+OI8KISAbm4GJyp3g70PBmH2wIViBfUmBMLaCwLLxHRt2bEEDqO3h+tBo5YyW5Nx761O/nzA/i63Dfj5eE42Twx+oJQRkpKfxeroej/Ympl9nSUKOMJ/PCN9q1if7j0+fKwdg58mI/m1+jNZ3CAXdX3Mz2Q3DcZclGSwpm5CkHNBxvewOJtPlgKRqy3GAawgRhFOyUXe+GZBt9jbZaTLgh5ki2iZ6VN1JUV4fZMyX5G80XVtu6uNhB0siNMLZkp3ZvAjDowlgxYRsvCDt7TCltp1yQ1wRomBOeHr7P7ZxotvMEeBhuORZT7QcdJdLftDJotyZH2o/RNG8PmsjhGcxhLd30JAuw36zl/HH0FFBzv1EG14H79kXpwohGCMKmJDNscPy1YTY3o6YFZfdybwIVtGGfhjMLLpvvmb7RuQHsFmftYm70a0a8DEnLH0pweqNc/bzOGSRa8T2uCREMWVZRsBaObXOmFw3MLh11oWFAewZvzwG/SJm6PwXsHPPhqEgwsro8JqQ2LDX59vggsdm1tIuCFHOetKcbgUm23sSYhJVmTkHB5s15MOA7Wyy+MBcGW+xyLnXDwVNCz8jJBd80jcuCdcVwhOzAkmOiBBvdHHng7D0RQtGuCY920jYJiM+artP6AgirCQl14QEcTEk4ZeEL7vY1BGCMWWEM5OJE56oj7pDuGKbdE925yEhisQQvlfS0htCVuMCm/nsNN90awkDRthdbpiWNC4MSMO+R4i4n+kmuBnC/jMbktYWhGt62pv1so4QcTfZna4/NY0fEC4Y4TJriPBZPyQZ8J7G+mWcg1PbSvngoDtw7AuR1O0uIb8iTwmxoJn9Z9ECBTTWUeeI7ngalPPWy0LdhR7Y8CJYPCAMxRBW75m9IgSrz85sT4xyhxBW3NMkNz36rqfh8x9PPY2oiP+EEC1YH+st4H60wGPugYIvEgbc3c6f2VBQ1ubmlemDS0Kcseu9CR4R7tlVGKQfhAg9IOxYyeDzOA8IBS3O3I6eyJFPH4QAJeEyIIkm5p6mktOU6Vl3U45xAUcOPCBER+58acunR71HKGgqyosqhAk3m42QZeEjTy4ThNCC959pimnuUhIaLN1mOXZvbPDVjIRmcEScMEAMpCSkxXvQiV+SGTE25rGjN67ckyVsOrG4nY9BHGqwP2br8dDmWINpMp9M+Tx3P18ZZjCbco9oGvRyL9lp9vbHY5asB+scgWE6vAtnBknnDJNft25qGkD8Mz/o+jRb9/jAahIaN75Y1Bi/Ok9DRoQkLyG/P+hNZyaiQ+IeHa1OknzOBrKDwfQ0mvRKrffUXmQAzPehY9p+jknGPi03GIxmgLLpoPw0Tth4km1ODrWcF2P21XLkXCGKu72tumwB5my03kymoyQi3yEzHtHZidPRQsf+vM9U/sP+mxAvREIAnajYkL2IXWidEFR8brG3YPb5iU5fIiubr6eTzbo/C4ys/KK4CjcoF0X4Wp0PBLrqVaRDC/GVveCQRgtanwaz3Nq4Fr/ydAUichwnXZR1NPDFJgTp6hPdfLVIi+OBjkewVR7o6kTEzQi/1c1502z7s54XWw/lM2h1+rgu5bLpx+fLLSrbA7o96vUpiFteq1+3aF8Cb9+rBEQ1JPAJoUJJG0Ig7o6auqWZ9oUEPjW7Ve+GoY7YdfwXFV0NCK2zECroakBoPRAVnui6lchuSKQioaDhbyn1XA2YYsudPLkpoQWhg9jnZny7baKKQqGA6iVu4h+W3SlmRMgFA754it2sD2I96QuthqGUrwEk/iHLN6UemkEH4YAvXqqSEaUUj3hVyIhoIQHwxWu/nsKHkJzybeo8RIoWch5X91R5ihRAVjWl5ou01UtiUQXZ5Vi/JujIK4j13kIhuqqQI7FumwoxEQKZBWoUeBoYLLl16ZLWhxiQy60Q2XoNHgCJ9XeYdi3X+pKRct/o3Go7BVt+0T3fabGdAm6innDtemlDgLKLtZVqbyVK8DT3fWUtETZXudzPW0ltpBZqu5HXwAsDagCTBkslu1bjiADNvumi+RqYOG2S74XewN+sFUXd0v0NNRszUBMFhG/kN4gIuJWXeDSHCHBs6S0l73YjiAAypy0eq5GgAUjYLYg/QTSlv6gEUFPV9OvlHSQXxESG0GJJP0HMZBahB1i0/1qyl9ehtDwcGY4Sb0J+iyT5VLRqMtd+JO+MJfhUEubfFAGkbwFeCDcjsjOl3ijrJ6bQaUZo+NVAX5GbGsJiI3SGzQ3nv6F4KOZ9pAiCUDkDcnlx9PuXHiMcZO28Ku9L8l5T9KvoCHh4VpiPytsVf35sR2QHexXeHvtEvpsF9g+cDmB82G2ViYBPtDvgi4einsMBwVuFSsW/p/LjA31Q8jklkI0sIwjVeUX11+W/h4fAxKzE5x3LIYSt1dCJFXcuj+TGxfGQryyM/1YzhfIRPYwtM8iPxXn3bzXOGvlbdxcn2TGNFvkwMFdBkOdRlBZZ/L5z/xXH8hV53nbrum9Urrvdev8lNi0tLS0tLS0tLS0tLS0tLS0tLS2tf0T/A/DzAgCyf0eQAAAAAElFTkSuQmCC;" parent="1" vertex="1">
          <mxGeometry x="254.3" y="264.72" width="111.65" height="111.65" as="geometry" />
        </mxCell>
        <mxCell id="VrKKvqY3dBjmQD-Xjk8_-2123" value="" style="shape=image;verticalLabelPosition=bottom;labelBackgroundColor=default;verticalAlign=top;aspect=fixed;imageAspect=0;image=data:image/png,iVBORw0KGgoAAAANSUhEUgAAAOEAAADhCAMAAAAJbSJIAAAAkFBMVEXyVBv////xSQD6wrT5tqPyTADxRgDxQwDyTgzyUBH4rZn96+b4qpj2jG/5tqjyUhb0eVf5vK7818z3oIf4p5HyWBf3m4L+8e382tD1h2f6yLr5uqn5tKH6wLHzXiv0cUrxPAD++PX1gmH94tr2lHn70MX0dU795t/0bUL7zL/zZjfzXiX2lX32j3T0eFP3pI3WVpEfAAAGMUlEQVR4nO2YW2OqOhCFIZoLqBtv9YpavLS2btv//+8OmQRIAFs85zyu70UJIcmaZCaTBAEAAAAAAAAAAAAAAAAAAAAAAAAAAAAAAAAAAAAAAAAAAAAAAAAAAAAAAAAAAAAAAAAAAAAAAAAAAP8/EWeMq/Ixf2LJg6qJ4pwr/63K60duc/ZZlxPuB5w10D0nzjOPghaotdY3v8pjYjxP+/GICyOSz/v97WerRC5vf+N0eH+R3Ol6tO1vx1XfkX5eR1RuiBd7aW2WxEVhxUIFyaEqTudj0bSwWuc1tl//QqK49kLL6ih0w3KZ/x+3NKXUfGCrvi+qOWe7vGBWSWbb/DnlAZuEFVl/z0j+IWwwFYG6+0W9Pa91LvSowot4Vl/iDSOc7nNhctCuUIyWTtXlFysUTWoK+/lznCv84496SB+oz1aFo3rhnXmdR0dTvH/kPo8ERqdaw9fkkUIZ16rO5HMKw6nUw2PnTgrDo3J7FxtTGvvCfxdoVt3yksa9QdFAu0LRp6rZRzxPV1Yi+13haR7H6cYu7hV9wPIij7MyCgfmxdbUzhJ3urjVvXxOobxQU2clWB7ixqfsqJd5q0JOjpLNIsE5E3tj0bfoV4W7V12fr82o++RGvIYKjMLpKz0yZlbLwplE/l1M7VoF3VFr/ckpsYNTfE9ftylMgkwbcF9EREmCB/xXhT1m2yZjhtcHsdAoLMKI/NB13ajC3nX3WfhkrOFayrsTmM2/NoUs1TN4qwrFvTRzF4VB8koe//FgfL7C6E3XfZfl6+iLXEgH6fCle6yJxu1WbVMotfnObgSXUz0I0VVhkJgYSo9JRavCZE8rpFJo4kxwfTLW0L41lY3yFoVk1IG3RRmz6sSgm0I7yqNu98WhTSFfhO5jkLxoA68kOzWG8SNC1z83HbdFIR/mRVvfeJQYjFRnhYp2tCEP1CKssDI8hVFCG+932SSfhdSXUd491tDKOzRdv0UhTffCN5642FF0VGiWaW4mdXQUfrgKTSwVe3LZLCgdTlKcyXsQ9Qj0Myyzy6yDwp6dL7dsY4R0VkjOtWNletJQaPdDu7ffyxajq7WNGUf3vOaZOdy1zOH00Rxuf5jDPvPzl4uj0GPeiDNSCEltdI41z/rhzm+YUuG79sM/djLdAc2bfri2zhWNJxV2W68rXI6qzsxenK0IetmMju2Q7S/dYunYOkKtSKexJg44zkG7c265mkKzjes1E9XOhk2FG+HmM4uwxrFjrDFj/Oy+H87cSaQdnDZlsz+Xlkqu1ld8hcaZsgfmN36Y5odDskO4d7qnOOMx7RprTE7DK79VDxWSb4XXynaCEkXyPrOKFoUU2bNK/JxG0Di3D1zIxtJ8UiUF0lO1XowBfbrGGrM0Vsy2Fsk7LY7WvJQCYfYpTNPRK+1QS6OYHC+zZ1axLpR4eSmb/ji0aj+MTO6TltNEUS7cfM+Jb4o6nWMNZV5hNmL6bCG/TuHgKK3CN1Hl/nSqM86Q3qS282Hq+oOJktlR5q2IRamkPFvkpfbwPKeRPTxbkCr2l6qOi/UiTIPM1GX02PkMlST2fLhJ4535u1FG4XZYEl9Jor3sWO3+9OxxLy7sLGgNh6ftcGJe0XGeFK7meQM9ezlwMQK/hz7F+dC6l7W79R5Fglel/1Ki0T2viW51L85XpxzUykxzclMrTp3w6V8VGCXNMz6tcS+lMUYTnsLklpGtzRPtac5ebDad7nlNIndeXzcVPFIYyEXmFGZrp5OEfTivesbgdYUxFUdRFtaY+goDTiLCs7aTCcHhrfJfRgviiTOUOJSDO61ZedfWojDgt20xumUc+OtE3Au7nI52oP5d287ctSX7uv2qu7ZVueqNR2jvMHHG3R4oKdR3eZ2JRLCeT3bx/VPa+9K057E5FPZKGD9+7zaT2bh5ZazEYdHfpYurLKSr88Y0sOvPxtx+oGabXh2d53zlxfPqMEH9zvKW+Fb/OzqRPfnULaTPXGboe2zvXrp+Le2K0dfjDy6lI30r7V6Hl3fe7geKNdDCIvtrqfId3rjqTphfFwAAAAAAAAAAAAAAAAAAAAAAAAAAAAAAAAAAAAAAAAAAAAAAAAAAAAAAAAAAAAAAAAAAAPDf+Qe8ZmBN78EHVAAAAABJRU5ErkJggg==;" parent="1" vertex="1">
          <mxGeometry x="431" y="331.36" width="103" height="103" as="geometry" />
        </mxCell>
        <mxCell id="VrKKvqY3dBjmQD-Xjk8_-2126" value="" style="shape=image;verticalLabelPosition=bottom;labelBackgroundColor=#ffffff;verticalAlign=top;aspect=fixed;imageAspect=0;image=data:image/svg+xml,PHN2ZyB4bWxuczpkYz0iaHR0cDovL3B1cmwub3JnL2RjL2VsZW1lbnRzLzEuMS8iIHhtbG5zOmNjPSJodHRwOi8vY3JlYXRpdmVjb21tb25zLm9yZy9ucyMiIHhtbG5zOnJkZj0iaHR0cDovL3d3dy53My5vcmcvMTk5OS8wMi8yMi1yZGYtc3ludGF4LW5zIyIgeG1sbnM6c3ZnPSJodHRwOi8vd3d3LnczLm9yZy8yMDAwL3N2ZyIgeG1sbnM9Imh0dHA6Ly93d3cudzMub3JnLzIwMDAvc3ZnIiB4bWxuczp4bGluaz0iaHR0cDovL3d3dy53My5vcmcvMTk5OS94bGluayIgeG1sbnM6c29kaXBvZGk9Imh0dHA6Ly9zb2RpcG9kaS5zb3VyY2Vmb3JnZS5uZXQvRFREL3NvZGlwb2RpLTAuZHRkIiB4bWxuczppbmtzY2FwZT0iaHR0cDovL3d3dy5pbmtzY2FwZS5vcmcvbmFtZXNwYWNlcy9pbmtzY2FwZSIgdmVyc2lvbj0iMS4xIiBpZD0iTGF5ZXJfMSIgeD0iMHB4IiB5PSIwcHgiIHZpZXdCb3g9IjAgMCA0NC4yMTk5OTcgNDUuNzc5OTk5IiB4bWw6c3BhY2U9InByZXNlcnZlIiBzb2RpcG9kaTpkb2NuYW1lPSJhenVyZV9kYXRhYnJpY2tzLnN2ZyIgd2lkdGg9IjQ0LjIxOTk5NyIgaGVpZ2h0PSI0NS43Nzk5OTkiIGlua3NjYXBlOnZlcnNpb249IjAuOTIuMyAoMjQwNTU0NiwgMjAxOC0wMy0xMSkiPjxtZXRhZGF0YSBpZD0ibWV0YWRhdGEzMDcwMyI+PHJkZjpSREY+PGNjOldvcmsgcmRmOmFib3V0PSIiPjxkYzpmb3JtYXQ+aW1hZ2Uvc3ZnK3htbDwvZGM6Zm9ybWF0PjxkYzp0eXBlIHJkZjpyZXNvdXJjZT0iaHR0cDovL3B1cmwub3JnL2RjL2RjbWl0eXBlL1N0aWxsSW1hZ2UiLz48ZGM6dGl0bGUvPjwvY2M6V29yaz48L3JkZjpSREY+PC9tZXRhZGF0YT48ZGVmcyBpZD0iZGVmczMwNzAxIi8+PHNvZGlwb2RpOm5hbWVkdmlldyBwYWdlY29sb3I9IiNmZmZmZmYiIGJvcmRlcmNvbG9yPSIjNjY2NjY2IiBib3JkZXJvcGFjaXR5PSIxIiBvYmplY3R0b2xlcmFuY2U9IjEwIiBncmlkdG9sZXJhbmNlPSIxMCIgZ3VpZGV0b2xlcmFuY2U9IjEwIiBpbmtzY2FwZTpwYWdlb3BhY2l0eT0iMCIgaW5rc2NhcGU6cGFnZXNoYWRvdz0iMiIgaW5rc2NhcGU6d2luZG93LXdpZHRoPSIxOTIwIiBpbmtzY2FwZTp3aW5kb3ctaGVpZ2h0PSIxMDE3IiBpZD0ibmFtZWR2aWV3MzA2OTkiIHNob3dncmlkPSJmYWxzZSIgZml0LW1hcmdpbi10b3A9IjAiIGZpdC1tYXJnaW4tbGVmdD0iMCIgZml0LW1hcmdpbi1yaWdodD0iMCIgZml0LW1hcmdpbi1ib3R0b209IjAiIGlua3NjYXBlOnpvb209IjEuMDMwMzAzIiBpbmtzY2FwZTpjeD0iMjQwLjA4NSIgaW5rc2NhcGU6Y3k9Ii0xNzcuMzkiIGlua3NjYXBlOndpbmRvdy14PSItOCIgaW5rc2NhcGU6d2luZG93LXk9Ii04IiBpbmtzY2FwZTp3aW5kb3ctbWF4aW1pemVkPSIxIiBpbmtzY2FwZTpjdXJyZW50LWxheWVyPSJMYXllcl8xIi8+JiN4YTsmI3hhOzxnIGlkPSJnMzA2OTYiIHRyYW5zZm9ybT0idHJhbnNsYXRlKC01Ny4yOTAwMDEsLTE5Ny41OCkiPiYjeGE7CTxkZWZzIGlkPSJkZWZzMzA2NzUiPiYjeGE7CQk8cmVjdCBpZD0iU1ZHSURfM18iIHg9IjU3LjI5MDAwMSIgeT0iMTk3LjU4IiB3aWR0aD0iNDUuMzMwMDAyIiBoZWlnaHQ9IjQ4LjE2Ii8+JiN4YTsJPC9kZWZzPiYjeGE7CTxjbGlwUGF0aCBpZD0iU1ZHSURfNF8iPiYjeGE7CQk8dXNlIHhsaW5rOmhyZWY9IiNTVkdJRF8zXyIgc3R5bGU9Im92ZXJmbG93OnZpc2libGUiIGlkPSJ1c2UzMDY3NyIgeD0iMCIgeT0iMCIgd2lkdGg9IjEwMCUiIGhlaWdodD0iMTAwJSIvPiYjeGE7CTwvY2xpcFBhdGg+JiN4YTsJPGcgY2xpcC1wYXRoPSJ1cmwoI1NWR0lEXzRfKSIgaWQ9ImczMDY5NCI+JiN4YTsJCTxkZWZzIGlkPSJkZWZzMzA2ODEiPiYjeGE7CQkJPHJlY3QgaWQ9IlNWR0lEXzVfIiB4PSI1Ny4yOTAwMDEiIHk9IjE5Ny41OCIgd2lkdGg9IjQ1LjMzMDAwMiIgaGVpZ2h0PSI0OC4xNiIvPiYjeGE7CQk8L2RlZnM+JiN4YTsJCTxjbGlwUGF0aCBpZD0iU1ZHSURfNl8iPiYjeGE7CQkJPHVzZSB4bGluazpocmVmPSIjU1ZHSURfNV8iIHN0eWxlPSJvdmVyZmxvdzp2aXNpYmxlIiBpZD0idXNlMzA2ODMiIHg9IjAiIHk9IjAiIHdpZHRoPSIxMDAlIiBoZWlnaHQ9IjEwMCUiLz4mI3hhOwkJPC9jbGlwUGF0aD4mI3hhOwkJPHBvbHlnb24gc3R5bGU9ImZpbGw6I2RjMjEyNiIgcG9pbnRzPSI3OS40NiwyNDMuMzYgNTcuMjksMjMxLjMyIDU3LjI5LDIyNC4wMSA3OS40LDIxMi42MiAxMDEuNDUsMjI0LjAxIDEwMS40NSwyMzEuMzIgIiBjbGlwLXBhdGg9InVybCgjU1ZHSURfNl8pIiBpZD0icG9seWdvbjMwNjg2Ii8+JiN4YTsJCTxwb2x5Z29uIHN0eWxlPSJmaWxsOiNmMDU0MmQiIHBvaW50cz0iNzkuNCwyMzUuNTcgNTcuMjksMjI0LjAxIDc5LjQsMjEyLjYyIDEwMS41MSwyMjQuMDEgIiBjbGlwLXBhdGg9InVybCgjU1ZHSURfNl8pIiBpZD0icG9seWdvbjMwNjg4Ii8+JiN4YTsJCTxwb2x5Z29uIHN0eWxlPSJmaWxsOiNkYzIxMjYiIHBvaW50cz0iNzkuNDYsMjI4LjMyIDU3LjI5LDIxNi4yOCA1Ny4yOSwyMDguOTYgNzkuNCwxOTcuNTggMTAxLjQ1LDIwOC45NiAxMDEuNDUsMjE2LjI4ICIgY2xpcC1wYXRoPSJ1cmwoI1NWR0lEXzZfKSIgaWQ9InBvbHlnb24zMDY5MCIvPiYjeGE7CQk8cG9seWdvbiBzdHlsZT0iZmlsbDojZjA1NDJkIiBwb2ludHM9Ijc5LjQsMjIwLjUzIDU3LjI5LDIwOC45NiA3OS40LDE5Ny41OCAxMDEuNTEsMjA4Ljk2ICIgY2xpcC1wYXRoPSJ1cmwoI1NWR0lEXzZfKSIgaWQ9InBvbHlnb24zMDY5MiIvPiYjeGE7CTwvZz4mI3hhOzwvZz4mI3hhOzwvc3ZnPg==;" parent="1" vertex="1">
          <mxGeometry x="608.5" y="620" width="117" height="122.32" as="geometry" />
        </mxCell>
        <mxCell id="VrKKvqY3dBjmQD-Xjk8_-2131" value="" style="aspect=fixed;html=1;points=[];align=center;image;fontSize=12;image=img/lib/azure2/databases/Azure_Cosmos_DB.svg;" parent="1" vertex="1">
          <mxGeometry x="797" y="326" width="96" height="96" as="geometry" />
        </mxCell>
        <mxCell id="NPqBEZIJGz9gFvAMpIGe-2087" style="edgeStyle=orthogonalEdgeStyle;shape=flexArrow;rounded=0;orthogonalLoop=1;jettySize=auto;html=1;exitX=1;exitY=0.5;exitDx=0;exitDy=0;fontSize=20;fillColor=#1ba1e2;strokeColor=#006EAF;" edge="1" parent="1" source="VrKKvqY3dBjmQD-Xjk8_-2134" target="NPqBEZIJGz9gFvAMpIGe-2081">
          <mxGeometry relative="1" as="geometry" />
        </mxCell>
        <mxCell id="VrKKvqY3dBjmQD-Xjk8_-2134" value="" style="shape=image;verticalLabelPosition=bottom;labelBackgroundColor=default;verticalAlign=top;aspect=fixed;imageAspect=0;image=data:image/png,iVBORw0KGgoAAAANSUhEUgAAARIAAAC4CAMAAAAYGZMtAAABPlBMVEX///83NTW75vvT7/wSh7E0MjIxLy+8u7suLCy2tbW5uLgAhK++vb0Agq4qKCgvLS0mIyMAAAAfHBz5+fkjICAAfasXExMdGhqNqLXp6env7++/6//Ly8vc3NwUEBAfaoWGhYWgn595eHji4uLT09OrqqqZmJhAPj7G6vvFxcV7enpycXFHRUWSkZFPTU1nZmZbWlpgX1+SrrwqIR2crrZramrd9v/m8PXP7fyZwtZoqMW71ePP4uuAtM0nGxUXfaJQnb6OvNLt/v80PkMpV2kxRU81KSMdcI5NVFiv1ul+lJ9YY2k1krhaocGpy9wAcqWjvcpfc31rhZEcP00tTl2EkZgAX30Ab5ZQcYEtHRTI1NuLgn06fpt6nK0kDwAiLzeKmJ9IXmkeAQAAUm0GKTdVS0UgOUUADR6by+FWTkpYb1prAAAgAElEQVR4nO1dCX/aRtqXYutECIEECjKiAiEIpyEOdnzFdg7nctzEm6bb7nbbt9237+73/wLvnNLo4HKw4+zmaX8xEmg085/nnovjvtE3+kbf6Bt9oxnkfukK3CyZq/+scSMVuTs0p8eZrxwGkkbt5mpzF0iZ/ZXDfMegIE1SP5z/iiX58EuRmfhQbWd+i2gQfexGra4VkwhU/fnvvNtMVQ0/BfhPh21OvO7bkcowh+HHVjFIFjpkL0Jh69IP2gLEvgyFvR82WsFC0agwv/JiTNKrR59H4TdufZQsvMlyTaNFPmj0g5mSsztBtMdMqh0czP1+cRz+pirGFG2vGGmSoUc/uRU7qY4VlklaFEenQ29NWtxdpCHpyDZtz8hAf3gx7PNGscc+MbHCNnFKkTKJWzFiugfeKjIX1SIVtoFEH+5wd5ImmE1M2jbP2oZ/+jJvY0GXOobNiHxLkO1QxqQi5YNWRUyKjVlnTRZfd+gLyJ1q8W4qV6fuob9t0qOBLcNWBiWe5/W2pHiGIQhRYx2vLhS26VVQr5B21uqCnhSbAWOWuLGF38OpoQ7uDLi7SGZg2JA9TNtG12qd1xtQ7nlIumHI6C9ROC2vAq4taps8W/bwJ6XOW7ilkT6dFhmM+rqNudCt6/TpO8ok1ZEgN8HfsViCDQ0AFPpvT3+2+TgZlcF0OrItCBBpO+cOdJ4wSbvC6330SQpN+ZCwH76wDKxJHIM+LtUj9X2nSLJAe/vdscyL24eXb8EVLwx+KfEpEkRRQB9E3PbWtCLwhEn6FtDFCAtPowUHFTmy2w1b4PGnTkHAH/xKPStcqGbcu2XqwHaKhgj/3dkRcevlNCIMNq9+aLT7egn+FmlMB3CLwEMhMEehZZLqJSl8iVLhiUYeyyUCGmWrOClfFpKnTzfePxPntX4GJrKu48cQkyi2yAsCtC1dS6YtqtXlafgiDegnjFVfp2ZpIlcyop9gmL53W/R04/KXD8+e7AirI8LQzoOntRGQNVEITM7p2yVqS4D9kcMWd+u8OEBC1DP4CpaWoZFyYjgoXzff8kx6+vj91asnO7r4eXggsixQiDBWTLNdKYjUPa/V+VLokgBEBBF5qT2LR6ocShLVLSx5xW765o0TkJUrwBzyGtCISBg3pxWd5yvEoZPqvBwqCoAIbyDu6UFNjrgFmHg7bYCnlWnq3k3T08M3r9YNB8ZEhLpFJrq1UeGFDhUb4LDw1hACMTV4wju+TXULQ+ZAlxfkVtZNe++vCjv6TG0qiAU5BEsg9OzFixfPnj0j14uAsXDHTyEzUAkA8PCGB5SuOQZsJCO319FBWcnUkauLJfUW4QB4fLB2ChmNEnBzn/35l7deeziBV/yLj8+ff5emjzx6XpTlGUpI/2UXCI0M3VuqOj3g4Bg9oFF9vgCRhgbJBK+wkkojAPFAM3bnZmPk7gfbSLMHZgPc/Jdv1G5jAhTuiywwCL18/uJc4HsNrz8W9Cxcdl59EKC61fuYB8wxkBWjWcPqFCAFPRWTF3kjaWv7JWCUYmKTykWtkVzPsgppNJ69YFjhN63bHuycP2PweAkpDcuLc3mkapr66IfmmE/hIqBrcYzVrCsXMCLONvKGERAQEXk7LjYuLwNnJ6Zv2zfmspnBwJYTYAjPPrKs8OkT4JBgtHP+/ARQbjOLcvArjNBzfkdpA0gQ/fB2oBeS/Cd0cOOGdQHqkRrwNtBP9KkDc1Ei8P3jnnwD/tCKsYV3U9a41avoQgwOPiEYL1/+eAAqOnxy/hw3/l2IyWkmOACavyr1tvYopKu3fMLDuX8P6JRuR4cMM2wMLR3dLYwBEC6QK6ETa68/MCAHxRKZzcbNJO6Vgc0KjAD0xPOrCIuTk/LFwcHmIUBO/OkjQSJ/eUH4Yv8gm2E288c/WyXVfU8huf/w4ZsPr/RQdxfebG29fjQqkRhRJ0wqjrrQIgvE9w8J8RLQPqygTLybEBunbRhh14F6PPuIuL6H0UCtzR3hn7brwsvN3HEetXd/H/3dLO+9mwXJ4dmJYJi7G0eHGJb79wEq969CVGSh8ERP6l4RJhebNlQ3AcMBqoxYSGZzsGanfwPWpupV9BCPgjHufMSa8tPf/h42NL9HalD8CPE5QJjkzvbKCK5TjkKSFKAy9/fNk/MxtwHpMYDlPiaIys6sGAEi0hVlyKtBxAHdgYV+L48Z1era2+vPLLn9OlWpgqiPfnjU/hPJysnm5va/8hSRM/rzXwhblJFUcPjqkEBSPszHEcmdOj9ubr78h7pB6fXlwxCVD50Uf6BqjCVlDEVJ5IMwiysNiHDJYy2qfFCcrF21utsVagNEvdOErD34jsjK5q+YCWDTfqAP4Ebnj6DIAEiw5HAYkvzxUQKS/GsF3nl+vksheXBv6x5FBeiVtxkesjCW0V1xpBBj4w51i4Cnb2uhKDmTOnO1HvKnFBChoL/9DQn7b5/CBv3FvaAfn9FHfsaQHHMYEghafp/joHrNbXLHCUjK3Fv0d+c9heTxPUAMKvc/8KkwCl8LgwAgYrqqJ0SugdGMMFBKpf6aEan26xQQudNDeLw/3H0TKcpP7de0if9DH/qF3OEuyxASDoBWNjEk5T0uoWRzB+YfuKRpyCb3MAFUKKtcDTLlhxd0q16xS0YEmaAPJYpBa2RZ3noRMb16gb7o1RXGA9R49+9Ri07OOSI55T0K4ym1MdxFDkKyn88dcAiS8j53FAoaYqX893sB4bmfGMkJ6fV7gsqbV0tlp+RBQBFpbVcKcnu9iDQoM4o7b988vP/o0SGpcjmCZPNX9wwhAPQnx406k9HvzyF3wOZegvZDMPbK5SMECTA7RLNs5i+Oc5u53P7RIfdvwjd/OcyAhGGVN293FiYxRa+LdamjjGyx0AnWiogmGuQ1+lsgz/cfHoUWgdUGnzzEJrl34BHlH+fn599tnnJ7m3l86zQP+eNiExZ4nIfic4HtzvFefjN3gV7kE4Q/xZUJg8rrh0SpZGnaOHW2A00KvEEFOFHGVF2nrfHHxKAJOwiQ9/cehEbyjIXk5HfU8bC15q/APceKlTsoQ8UJGARCsn+JIIGMhC3z5hGEJk968BKX9+OjpDLJAmWR+Ii6YehQtYhiW1qnP+IRrUoAuQT8G0FyELMZfzY4JCTAlT6hRgS0/bCcg+JycAq+2ENtPzggzS8DyCCsn+jbiCz9NhMSKD/vV9IpgjFRlDXO+9MM7KoCpfoGAQLpMa3vbtwzf/kEqkzwlPP8tJyLVO3eBWz6XujAccfwn3c5yCJYyf5Bq4yhzM3mkgQo2daHJbkDguv1ZRmdCZGZQgcBsnUvAclp3I7+2uAOEJMABXGWJ6ggDMrpwstlhAz60SeS91GwMsk/CvnwQRYmgAgojdF8UGTB05Q1Ck1AXDOx8IEBZA4kL383TahJPgEdsccdHZTzQE2cwqKOUoUf5tG9d0hUcr/Dz773T1xO/v1CSAinPNKGnZnjhwIARFLXOMjnj4xQiVCRSUKSDGn/REMDDdjMMmSXy4tyvnyWWTwGCRnpXL78M8cN6k92iArK/7wQEqpoVUnz+CxQBNEYDTVJWWPk2yBqFcnM+3tbTGXC+u4mEx8nRRh5fYe1CDTG3N7+5veHM1+CPPzyxSVgrfZP5x9DpXy0BCQYFEVVNckTEm6+IBudJrDBSnd9zkiVsogOZObh661YVcL6bhwnEx9/Bc92iXeRJ1mTo9mQXOTLm/vI1239kymlvLcUJBCURwATCEpHF9F4gCjKsiFMvEDTVKW7xsGbgLCIPgK8mQCEEZy4X7JJLDBQprRp+/Nfc1A+hqgBTMwdFtyL3SUhAXXxVQiKpDWa4/FoPN5uem0AB8BDqa0REHNiERbxHt3fz6hGWOF/JWNZ2OMmdxZicjqPcfcw+0Cx+d+XTCm5g+UhuQeUHgRF0ihJQKMqSnetk167FmURRUnKTAKS1wlIoMU1Bag1c/k8+D+PY5p5tAdNcf8PtpDc2cYqkABQukGjoQA0VIiGotb89WYBvAplEU29zACEheRxOQYICnNbnR4wsQfHx2dn+/uXl5fza3cI7dHwLwnxWxGS1tjSdYOftmu1lltddwa+OsDuKgit1e5edi0ih373Ig7JQ1DC5R/NYGkpPoOy0/gzIX7RCzK91xiZaIQT+0/6QFr4xpVJw96ZYDQ1xedmdBEDSdwK5x+BIo5zz38ylvQGLqHuCf5ZBpSPSirvrgSJW6SWV5ZLvLbwpasRERqRb0jAos9gEgaShH5FkACP9rvzegMGNZd7C99IyTw8CHnt3SqQcNyExKWDRrs3NoqjdSpWZ4SFRp+oKHR8PKsajKjHlEkejixBkF6eW3AW4mE+f7AMKkf77/IRl+QZ7TqzChEkboU6aIoG7E7gFdc3Ka2FLY2gDzWcgZpZjajKu3G9CAdf8WDNi/MinAxzuIhRzKOz05jUxFXJQu36gDIJzEsHXQW6I1J/TYzSqFO9SuKCWXLDmpy4/wohMQEkORC1fOovs+6sdgrsdNKS764AyW4tmlksWAHntNSgxa3HCPexe2b0NZWEjrPlmOnG16zklKEGAS7J6dnh8lpk7/Agz3JJ7jgqfbEqecqz0Y0xAAIPUFmH3+pg2wtTcmGSMtMnQbTFSA5rhk/aEJLT/cOjo729VTrq8DRiFVZuFqqSrbbOsyRU+hAO//MTAi6eSQT91SglN6cmTD+yYU7+b0hwkNcK7erF6ZW35Ej93gHJOOUuVpCbrcsnyaRAoT5ch9SoyNcRjJ4mMSw3pypMR24wkOTg9EtWknLli7ma7pDhpr0DPMDxrxXkZmuQGvsTeL30+euJhxXijKisQjTnVYWRHEbB5iEkYdoVInI5/81H3wNm+vR8PO1BW3UEBzhY5bpIbraudhKAyIMBb+i2/ZnT0aZIsepjVYn16NN5lWF6MopzSP7MPKCjfu8WsjAZWn/58R8idDuPyzEmWSA3W/sJsRHGMBRWG+32qPgZk41M5J8JhqclhsPmcQkrOSGblMNUEdIv+Ty8Ni/nMwqdbpB7/o9/Q+duk0Fkodwkp5YCSFAkrGoOVxsq17Q7Dpw0ioK8VFgytzZszcngC5NjBU49Gsk6PChfLKjAXqiLnv8ODBYjNovkZutVasDPaPjVqt+qqQH0JK4XE7toJobRlzLy2HPrwypYHOiUmQoclTePuKNjOG4x89XmYRKTkz877vJMklIkkE1EUgmz2tKuN5zVhaZGFNpSVtp2viQzVd9Fo7sn7LNne/ub0NUoz3HZzspne3FMNj+xiMxnkq37SfsLp52LzFJY07+G5MB5+UCvzhgfnN9LLJug4O879tmDcjSJgJsVhl3ky6eHCBM66fGMhWQ+Ig9TiIwnuswXUovOVyI4Lx8GeVI2mrNjnBSbwGTrJwbX6o+4iWg8j6wJZyXzEKUfgWrN5fPHe9xeLpfy0uabmwwfTVc01RML8udgAuflA39VnRmdzYeEZRM47Hfyv9GTfdJE+Fn5P9T+fTYJa36P7BC2TOWLwz2MIBNOzmcSjIggimI0z1Eeqook9XR9cG3z27RQfnXO+OACjR9rwGZu89cJrYuKc6loioRbQePBe99DvYEGMWBIeIEMEkcMcD4Phw3Lr9kC545pXcI5A3Jn2mxORzqZQA1Uq9NS4PRG/prWd2oAFgnmzkSZ65ncixviB/nNk590nHQ1i9hPQXwh40HhCwjMIfp4+A7yBxw1js3NKv9rWQOMERF7ZJCi0ezo4TKmlqK1ZeNaUd9EF2VPU+bnWhawCSs6MEvw8nzHloUAuSVwUBitp/oRTmHkjvN5Dvr6sNRLwDAAixzUvdGkxvIxi8g8sQFOK2QLuS0piFRJC/qiLPAotjFrijotXmMkeKQbE0VdNGK6iE0eJzA5+Xh+fi7jzs8dn4HStT8Qs8AbUJ0ih3YfjhaXN/GEmxCRgxgic8SG2hphVIO+GPBAuoqiScOBLlTQ2qyqqinWyqn6kcW3F7EIpEUu9UYME9jjJzldxWxyCjSo+SealMXlNvF8PTTQcwYnJeHZwBdUdPLLI/KG2hojiu38rqJq7ZFRxPn5luI2V0vAmh27ueSg+qKERRwTZEtfdkjkAh7/2wka7jrIoz+w6RwUFoAPnpWWy++hCCkhNXMEdutD5LPWGUVotgAojRHZD8ZR3W4zs0EzEBHHgbQEiyBaAElMnWw8QFNY/6wh3QGYxP8DjZwflpGLAhkCTVoDAdARDffK+xdJzToHka3XA3YuST2++kZStMaA5EpaNdNb2hg742CFuUoL/LUEJhunoKUn/wbPIX6YwjbvmWUcFEJVmjtDUgU8FppUyYP/XscQmS2tWw8T811j+7oALaIpLY0sh3Q0btluN7u+oq1guHdXwgT4sbnNTwDwI6A6XTTZGc9vBcyCjQuaNQ7YJMw8lU/jqM5EZGvrKpkf4SuJpfRV4HjS7q6Z7pKGxw1WG+VYEZMHF3k0h97EPmz+GGuN/CFedQHiQPT3gqw8yefjQjMHkctOIvUsDwS9ntyDwo+Eya+aS2HSWnl+32qYAEbJl5EJrP6BBIZMoz/Cw8eAW8gccrRsqXzweGMpRCCLJCZfjdDY3iDlq7rRtnb+MjmT6jWc3RX1ycbjg+/hWxpsYjpPrC0wNvjDxQUA5DShRWZq1q39BIvwfMHT0FyS1jjpgTMoVG9qV8JFLtu9BCa7hwewJhfMgBXlFrKEC3FICpBZiGy9/vAkNb1V7Gt+1a8pilmbk3w2b2yjxkW58iT7b2zACWibDCZ0CCyPF/rl88cPkoDM8NC27r3ZYdabCmRBgSBghveBYWnN5v1FmLjXHgVbVXg2Hj/eNbmLfHLKI4ajfHC5mwIkW41sbd0XWZkRRkoTL0C1qO70W5/DDFrz2hPsFyWHUy3ceLyxu3+wWc4DyiGCn8pwxDgDj2wW2dp62KGLB8h6jxFQqjxazRduwQaHxZ1rg2JOCo1rTjVYmVGQWtndOLzcPz44ePfu3cHx2eXh0dMMOAB8WSPQgENCQHh5xKP58rrUUpQRdGIrkYkFXGJeUwIcl6sJRd7T5jzv+K2uGjSGntdrNnueN2woXRcJ6yJznNYoETKIZn6fxSJAh4jR8hKx1wUxDBAhPQDupjTReT65S+F1J+51a442qNu2NfYaUs31qw6gqtuqaUpj2NseyBW7ZFmGruuyLBcKBVnWdcMq2fbIC1rc09nTCVArZoMyjzIA2dq6vNphV1EUPAkEdkNdEGASviX1ASalWArAvLZGqSqqK/VAQ1FTQVshQRQMXS7M2dZJkHWrMm4cbm3Ng+XB6qCkAQFvePjqSXwbEHG75fiaGgxECwY2vtQzgPGJtewz7K2rKFK30RzpCIOVti8S9Z2dD/dfz0VlNVBSgADI9z/spBdkoQ33qioQGQREVfKMcIskislngOJrMD0nBcPedDziCwaUE8A0Bvmgkw/Z+/CIO086V+/vzeGWpVnlcQYgl1fCTnKfGEglrEy7Ur+C0kOONDRYDfvZ5LQ0JZx6jmad4zQmuSEpSgA1LNyHJ2OppSDvPHn15nJrNixLoJLCAxT2HuDBLH4WmU1dZJIncyWviIyDqQ0NQVwfJLDIqlsjGV2Ijkpxie4ggIJm9rIoKENvESyzUJkDSwYcW5f33z6J7TMldPq9KR/q2BKpd1X18GauptY20juGrQEYp+q7bouQGxK4qHXR3AQtYLxHvM1ZHBYkRDOAAbjEgHn8+MGDTDg+iKltyHS4ikRr00SaEW5ALXmNEJPKre+qZzp+TQr355CN0bTPx/WLCISo8+H+/hxcZhF8Yuv1+zdvdzK3MBSnkIlVzcOMIoQb/ZoScTcBJpb1JXbgr+ItWgW94ylQ0XRStRcKOsTlzcNL3MxF0JAfXT68elt4siPPWhhe8uFmE5IadNAvSmGqx9ToR21of4ndbvFESrkzRIuhFLVXiJAAZimcnQz4BQDz9gog85q0OpPuvd6HexyJT3ay0GD24tNx1O+r6hgyqhg13mxR3tCGxds//cOETCKKHjRMkgvCqwbZp8oADnAQDLcNlmuAlQAKZueJPHj14erqzRu4wQai+/ffvLn68PZVZwdAsSNn7dcH3yOMgVtAttwQyC6/wPJO4TvZoCaMSAAmt35GTF/mBWOqwuWDuB4IElHu4XVSqgY8yozGAUWMooEdStAzXOQailPkBAQenpocbi6IHXgm9mVcVW1YuWV10rWBzDQAIGFeH07k18cKlCK1WwOGXBtfYwNghjGYCw27ApI2FECZ4S6vwFltwi1Os/jB1LzbVSdOSTD6GlD9YUrBRDtogrqrJPHrdNXUlNwVEGmOQ+sLmETyQRjq14BbBBMAlfCtDuQTlk0iMrXerW6CDDgYsgiT11cMoQBvMT3mt5PJYp7PBklgZ8kgkoddmicD8ISxra9qEzl0WTmIybaczSaQT27RO5kWe4BFYksXgOYIkkPKNbKMVqa+ptiJGEeOuMAY9Xt9mmynPwCSR9SR2Gea3JKAPFrRtQOuxWwRMbvDW9s+fFjsgrg5NvRTq3SU1FL+gNrpYIR3bh1pDZnyRTvokzWUUCMDGqLZx5Mx/oWhwNlDE3ghjNmW+UpHMJiUiKMMBDs7znNqt2WJG6LjK4mpW4OBmh5khyyBliVIyBwJHUmisgTcclVDcZI47RLl2TbQFz0DMwvsZg2aWYGPvavaMGJsUQ1SmTRKjns7+/4qU84JElLaLaVAgjehqATQLCERMgKCDfjY1hRglSDzyG1VhcMLpq9tI3PSHSJM0PwYF+fJ4rrC78uVGN809NIMrVGt3sZ5OFIAEEnqM8OppWf8ARdfn0gSstPAHhWammK2kVjIfQ3qYbNhQLaIDlOCwMlVtQF1D0odAjML1KeeGKWqiXpMIlpDa9a5N1Xn5nfMrrU4MzU1v+2aQQqRwMBWGfWThRSmzyGlInQ0fNcBlzpTGvy25JtaAIHDwYujAvWZHPX29Pim8rV+YgJFRGtfRp4i1wESnrzpq5yUGvNwbEFuA0Rwgyu8PpRqyHuBEkTnTCoGgCR6BupjGO13oXwRheEAdVpKlF2VEydKdclBTBl001wCR0bS0inBobUkTXQ+0BS6jLsiDDTYViQaPSBB5L4syMxKb79E8mRdqGqJR1YN5NT+4F4p7oaZStbxDOS7RY36XMoYK3KzDsML6mNglel9x9bbKvidJ2Oxic600WW2uRVykgdXA7JBTwfy23byVIFqJZFLdBrFL5EhQZR+MeCctPdYLTZbjCvr2yMN2kMYyxrs0jjf1lk4eXgCDnpFF8RMNHBr9VMHFm4nz7pxm6vMzLtxyhh5FT2Ttcq1eht6LS4QjMJUY1Vhx2C5BHimMlmrqQKXhlqabifpc3XrSUGpde7SIYVpRPpDTmXtksJr0M2AjpoQ38CrHUuT9kVeb5Nt9ttGmEQ0g9ShLXbqJDHljh4bhSlocDWVBcpDTALlAhiemK5sFdmNNHrQCSEP+hMxtCtOL2lke8WkUnO8dW/JsUZqBVzCk+6ja9dGaw/jTFVkGwvUrxF+rxl6aFdaSRbQ0p6Im3Vw1N0gpwvnl8ZIqUEmAYGdESQXg41Z19SThU4EZl+OhneDRIlOMQ1Ad87Zu1+WfOZgVkyOiRokCnJTS3J3g9WTABJm92/XKIX+jpPMB3XSQ3ppt/ruUNpxg3daJQE49cla1zzmolcQmwycPYs5JzfBXV4xbWH8u3lUIZd1FB4y056sD9ML5ExWAPqiPGTwdG2GFRI4K/UMbereUTbJcCPRLUscaRnSzk70n4hGbJr2hPHIEt6PW89IrV53HtYXoq6V1q2Q2M3FBkC02I7u1hkfLQF1hn69+SBvvTTV+1rWsqka07OyOIlbb2u2/9WZZEU1d/w09hg5dVHNtAjs+eoVOeFvebOjuf7o62KJNAUVL3tHb0b+QcAcxLVobfZ5t8O17pX2JWjQSfqtlKLOBmFhMhc1e7g7GN/6qO96yS1m7PyBiRnILU3VBGzjmQcwdqdfOSRev7bY3Q7sYdLZaM88YL3V+MohKbpLLKrz7NRG1117phJN+rNfGSlDd4nQfTySkr5WdfY8kbvqqi5JI26ZkKzipYVr9vm2XzcibqO6xCi+UwzSJrdwZyP+z6Mht8xBNK2RltY349ufdHYbZGrmMmF70MjwXJozB2i+amotdzJtv5UhXd5/JiROxkhPBvXcjJ8NFwuO6be+pmgP01JpDDNz65T2fPUa9EalSukLzHL9XFrKXtaSKVtEGUaIJQtNhk1Ot/hPId/MEq8Fa//xjsipcfT/FMrc3Hn+pgkOhqT0tecJZlG2xpnbWhcvbqjfSH3uAGWbjbnGRMNz/WaGy/+FhOeRpmZu/TeTh6YD6v+Z7tz1CJ9KYNzA2SZfLeFptKWvO5m0VsIzJPnbXnpzl4nYYH3xL/9rSEU2eMZKi7WTo3pjXhbHXsqh7rb7I0EWR/12YtBF80aiPGjGhjBbwwmv89uNdJRTa8BiCqPpUGVVgQnuG+EZ62NRHqfjvlp7uwOqNvTJ/HOPfuEGvQ4ZPQ8m8iAW+YDvQIPkzrYXXCtwdqd1A+4tIAiyHVvG4DYrFjwgEHwj6kapMgqzzI0SCMHA/YJhhfdqHRuu9QU/rXtsKZzv2ZZegEv6BFEGxdDaDweweFyAP67Ah0U7Pn3TbBsWLlQukVPi8MNmzyoZsoxYpiUboJLRUKHZEG0dbZYA32dV+FXXm5vhKeyQmGFZZ1pJbIZA1zg4AyO8JxTJz71KtBarznJbr55Yn28RSPC6JQNC0gjrEJv0qFqptWAk6Kuis3zQNEgJnz0WWqKgkjg7Vp45YpZNvsxWmFnsUiuldhqwcWBiCgyGBeJM9izmh0wY4srpVpHgDuNq1eCYTlQDZvFez04+GgZ9OASEkNTqBEv8jDm2ko/oqyVYWuR4N0G3LMCi0c6YSp3cL9kl24i1FC2v4j4e/TYAAAdhSURBVEXLBqwrkqEXFVfRKAEZEe3IwayR8lExpLJ0AIsEti43LLG4h89uk9fiKgixllfx+0Y0POZFzAqOiDlbBrWzbfyMsdKE0CrhdqPTqLVqwTic7CORQ6ZkNFGoa5AKIBSRfyBPWo7f9cZERBCvCrxUrbYa4wiRFi5GtNqwGBdjQlbrkcbYplaBvygV4oBxTYwIABiuspfwQkCBrETxS4Sl6EFbWKhNvEeEUOlBrergNXWrZRPI5gGVZKLKxU0xiBS2UFsKWE01Yd0T8ShaVcFbSceStFoeYw2Fu5aaUeJnGA5AxNpuOX2MiU0aoOBnCwMCEY6DxViNZK8FfyWKAqnPCCMik4rgpaYrOXdDLOfp7S5wWTINOhVUHSKTWfHoUGaYOiJcw9CVqJF24CsMozCairhLyF4PRGE55NTNEHr8CrpGFgOkw7WVgj1p8tje4GVxgk5QxP6uEF/iNJ8czAvp2BJDFVUHx6BYJolfbcWcjz42HgmvIsCN1mkv4cV+NHdKNkUBuhqf7xN32HtYuUcL+yaxV+CHBXBTECFLII3t4/aEGxNgVspebT2DcEvDrQ5CchJFE/nCZo7UXIhtKYoh4StxRUZURxi6buNWddm3Q4w8dF0lqVV8keotUlgt9jBc3xLVA6MW7RhFFuqustAcNy6d8cY8GqHrxPqP7FQklGrJJ8BP2NcHmI2jZRLx3ClVjLRLsFgRKSMibYdqwI2JFTcN/ZioFuSUx3qIEX7DKhl9LI8Z2qcU6xCqSniypC7s3YoXPhEeJ2gw8+ywjYikiSw4p++jm3VQB5D0qcd8yWwRRlbYUo+HbipTYHQarlghfMasJ9qxmLC4CqmlyETvyeENvO2EQLQk4WmI/yBs/yhcQR8Kj2snECfqgSBLBDB6P0maBcyzTGs68a1/6LGf7CLiZE/iOHElG4x7MS1qvUR85eP3h10WhMeQiuHrHDt0oumMXtyvkfgRDBI2mA+DpBGzYSlRvRGcLfxrauiI3okxCVamjKs3Ih7G8oiYs1QJtsBRQo9ISuQXN0I+EULD45ZCL7+On8S8xTxFth3w8CUR24gZcXWwp4Z3FmKcn20S9LVjzedLzMAP6YJww5MWhi1tPWaTT1ylZC6TKNMwjCLXvBElAsg5zDwbUpETM1GzUOeS4kOfh7RCjzFRZFNIdbDBIVs5hIW3aB2IYiLaLeZyYI0bMT3ZZSbCaDERpFMRAGVA2v9UuVtMjzgjGgtH+p0ez0zOmnDCEIZ8SxCjXdCMO6vUOx0z8EWyS/f9oHVoJ/CEhPVAyPRdIltRIctDkszadOOGSKLGxI4N0HlUFTCeb5dETEjrEF1BtU2LChtt1SAWs4S7cuEG1OOtGRqJOhA/KJaatmPNMWmGYJU4mEAiM0ij5hFFTVwCP9SlCTXVMNKI+rhIxPCkeAJJWMOwVURnh3w+ZZ0IoomJ8uym6kBscCwPG1eNY5rrWWWQwyfqJ3Kl2kVYnsTaripoCt22JvH8JOaLYlJQVxeaESTYJpodkc+K7hmTiZU6YTqSmcAsBDMiiTrg7wuxdFkM436o2KxVtvAg2Fukn2sDA3E8ERwkp90SQISwOJbyaPkIZl7oGFTDdnWNsKeI4ODDnkDMTorhiYVJ+G3U/hGmIhuNIYCgfSuMcR2ID0MtQ0zmSQ9DK+WM0S7KbInLEd34y2771VYwKAlYeEOHoR2M4UcdtxNzsVOsbONDqRXsf8NKjisdPKHbxQyNVC41VNYw2IZOS6UW8+9J3BayKHkrgYjYXN5ot3kDKl0pZmG7MaEkRIRJniqeDR63JdwH9iqpgYAqLR3mwuDzNuwVkypCHSVH6y3cFuypgcqIhm2MxgZ+uA7Zso6Sb4Mxj/01EsZR1sV7Q9UlkvUhrfIS/iDhTeJoNaKHYVbZMuND5MSTi+/rQUwYL+qwaKNHvIAVPDVAsX0EYVuwp8luGyfUu8QJwEJKHSxqFFGTiOSTvcHokZO92Nk+AQ3riK8xTqQT4jGiX2eeFYChxhhR5YGLTgzpKAbzjNUPkw0rQdJlXwxAJ763FqVCZaMVj7FjdeVtXMXYDmo6zRq0op+KMEmFub1ARiVIF4ZWNOF7bkeDA7Ls068pU2FPTk+EIlG1Bbhxg0kSmStBwinFkCEEoxR69mPCtnK9CQURd6CBK9ALxyYEneYna8WwAeCRsHSSPOULlQlEieTUMO8jgyMyq/lIm2lE5ND4oFDpozrgrwmX2JAn9eQiBJJBB8V2oDiTnNqqk5b8ad1Ce69XRmyos10B90p2D6svrW7AASni5WqjCtxp27D56Fjnar8ON66Hj7DV7NUNWHQfm0G3CIvp4Pd0iyXbZtfbNyqGFX4Li+zYqF5k6zlYB6sikr1Oi3ZFmKYHFQPwPt2qj4knUoSPyKvvo2x2g0agJEcJ3aARrZZx4GEF7JEzGnikG59sZtbAPTWZjvbBzSi+Bw+FxVRbiYNt3cRL4AYPsToEWni6iTPrsBJHBe8Iy1UCac6BKN/oG32jb7Qm+n/OQjDyPwxDqwAAAABJRU5ErkJggg==;" parent="1" vertex="1">
          <mxGeometry x="788.9499999999999" y="234.00000000000003" width="112.11" height="75.28" as="geometry" />
        </mxCell>
        <mxCell id="VrKKvqY3dBjmQD-Xjk8_-2138" value="ComptabilitÃ©" style="rounded=1;whiteSpace=wrap;html=1;dashed=1;strokeColor=none;strokeWidth=2;fillColor=#FFFFFF;fontFamily=Helvetica;fontSize=14;fontColor=#FFB366;opacity=75;verticalAlign=top;fontStyle=1" parent="1" vertex="1">
          <mxGeometry x="51.74999999999999" y="644.64" width="135.75" height="135.36" as="geometry" />
        </mxCell>
        <mxCell id="VrKKvqY3dBjmQD-Xjk8_-2139" value="DATA VISUALISATION" style="rounded=1;whiteSpace=wrap;html=1;strokeColor=default;strokeWidth=2;fillColor=#FFFFFF;fontFamily=Helvetica;fontSize=14;fontColor=#FFB366;opacity=75;verticalAlign=top;fontStyle=1" parent="1" vertex="1">
          <mxGeometry x="985" y="186" width="140.66" height="279" as="geometry" />
        </mxCell>
        <mxCell id="VrKKvqY3dBjmQD-Xjk8_-2102" value="" style="shape=image;verticalLabelPosition=bottom;labelBackgroundColor=#ffffff;verticalAlign=top;aspect=fixed;imageAspect=0;image=data:image/svg+xml,PHN2ZyB4bWxuczpkYz0iaHR0cDovL3B1cmwub3JnL2RjL2VsZW1lbnRzLzEuMS8iIHhtbG5zOmNjPSJodHRwOi8vY3JlYXRpdmVjb21tb25zLm9yZy9ucyMiIHhtbG5zOnJkZj0iaHR0cDovL3d3dy53My5vcmcvMTk5OS8wMi8yMi1yZGYtc3ludGF4LW5zIyIgeG1sbnM6c3ZnPSJodHRwOi8vd3d3LnczLm9yZy8yMDAwL3N2ZyIgeG1sbnM9Imh0dHA6Ly93d3cudzMub3JnLzIwMDAvc3ZnIiB4bWxuczpzb2RpcG9kaT0iaHR0cDovL3NvZGlwb2RpLnNvdXJjZWZvcmdlLm5ldC9EVEQvc29kaXBvZGktMC5kdGQiIHhtbG5zOmlua3NjYXBlPSJodHRwOi8vd3d3Lmlua3NjYXBlLm9yZy9uYW1lc3BhY2VzL2lua3NjYXBlIiB2ZXJzaW9uPSIxLjEiIGlkPSJzdmc5MTExMCIgaW5rc2NhcGU6dmVyc2lvbj0iMC45Mi4zICgyNDA1NTQ2LCAyMDE4LTAzLTExKSIgc29kaXBvZGk6ZG9jbmFtZT0icG93ZXJfYmkuc3ZnIiB4PSIwcHgiIHk9IjBweCIgdmlld0JveD0iMCAwIDUwLjg1IDM4LjA3IiB4bWw6c3BhY2U9InByZXNlcnZlIiB3aWR0aD0iNTAuODQ5OTk4IiBoZWlnaHQ9IjM4LjA3Ij48bWV0YWRhdGEgaWQ9Im1ldGFkYXRhMTgwNjYiPjxyZGY6UkRGPjxjYzpXb3JrIHJkZjphYm91dD0iIj48ZGM6Zm9ybWF0PmltYWdlL3N2Zyt4bWw8L2RjOmZvcm1hdD48ZGM6dHlwZSByZGY6cmVzb3VyY2U9Imh0dHA6Ly9wdXJsLm9yZy9kYy9kY21pdHlwZS9TdGlsbEltYWdlIi8+PGRjOnRpdGxlLz48L2NjOldvcms+PC9yZGY6UkRGPjwvbWV0YWRhdGE+PGRlZnMgaWQ9ImRlZnMxODA2NCIvPiYjeGE7PGZpbHRlciBpZD0iZmlsdGVyXzIiPiYjeGE7CTxmZUdhdXNzaWFuQmx1ciBpZD0iZmVHYXVzc2lhbkJsdXI5MTA0MyIgc3RkRGV2aWF0aW9uPSIyIi8+JiN4YTs8L2ZpbHRlcj4mI3hhOzxzb2RpcG9kaTpuYW1lZHZpZXcgYm9yZGVyY29sb3I9IiM2NjY2NjYiIGJvcmRlcm9wYWNpdHk9IjEiIGZpdC1tYXJnaW4tYm90dG9tPSIwIiBmaXQtbWFyZ2luLWxlZnQ9IjAiIGZpdC1tYXJnaW4tcmlnaHQ9IjAiIGZpdC1tYXJnaW4tdG9wPSIwIiBncmlkdG9sZXJhbmNlPSIxMCIgZ3VpZGV0b2xlcmFuY2U9IjEwIiBpZD0ibmFtZWR2aWV3OTExMTIiIGlua3NjYXBlOmN1cnJlbnQtbGF5ZXI9InN2ZzkxMTEwIiBpbmtzY2FwZTpjeD0iLTMxLjA3MjI0OCIgaW5rc2NhcGU6Y3k9IjE4LjI0MDY4NiIgaW5rc2NhcGU6cGFnZW9wYWNpdHk9IjAiIGlua3NjYXBlOnBhZ2VzaGFkb3c9IjIiIGlua3NjYXBlOndpbmRvdy1oZWlnaHQ9IjEwMTciIGlua3NjYXBlOndpbmRvdy1tYXhpbWl6ZWQ9IjEiIGlua3NjYXBlOndpbmRvdy13aWR0aD0iMTkyMCIgaW5rc2NhcGU6d2luZG93LXg9Ii04IiBpbmtzY2FwZTp3aW5kb3cteT0iLTgiIGlua3NjYXBlOnpvb209IjEwLjA5NTE0NiIgb2JqZWN0dG9sZXJhbmNlPSIxMCIgcGFnZWNvbG9yPSIjZmZmZmZmIiBzaG93Z3JpZD0iZmFsc2UiPiYjeGE7CTwvc29kaXBvZGk6bmFtZWR2aWV3PiYjeGE7JiN4YTsmI3hhOzxwYXRoIGlkPSJwYXRoOTEwNTgiIGlua3NjYXBlOmNvbm5lY3Rvci1jdXJ2YXR1cmU9IjAiIHN0eWxlPSJmaWxsOiNlZGJkMTEiIGQ9Ik0gNDQuODUsMzIuOTUgSCA0My44MyBWIDMwLjkgaCAxLjAyIGMgMi4xOCwwIDMuOTUsLTEuNzcgMy45NSwtMy45NSBWIDYgQyA0OC44LDMuODIgNDcuMDMsMi4wNSA0NC44NSwyLjA1IEggNiBDIDMuODIsMi4wNSAyLjA1LDMuODIgMi4wNSw2IHYgMjAuOTUgYyAwLjAxLDIuMTggMS43NywzLjk0IDMuOTUsMy45NCBoIDEuMDIgdiAyLjA1IEggNiBjIC0zLjMxLDAgLTUuOTksLTIuNjggLTYsLTUuOTkgViA2IEMgMCwyLjY5IDIuNjksMCA2LDAgaCAzOC44NSBjIDMuMzEsMCA2LDIuNjkgNiw2IHYgMjAuOTUgYyAtMC4wMSwzLjMxIC0yLjY5LDUuOTkgLTYsNS45OSB6Ii8+JiN4YTsmI3hhOyYjeGE7PHBhdGggaWQ9InBhdGg5MTA2OCIgaW5rc2NhcGU6Y29ubmVjdG9yLWN1cnZhdHVyZT0iMCIgc3R5bGU9ImZpbGw6I2VkYmQxMSIgZD0ibSAxMi4yOSwyNi4wOCBjIDEuNTQsMCAyLjc5LDEuMjQgMi43OSwyLjc4IDAsMCAwLDAuMDEgMCwwLjAxIHYgNi40MSBjIDAsMS41NCAtMS4yNCwyLjc5IC0yLjc4LDIuNzkgMCwwIC0wLjAxLDAgLTAuMDEsMCAtMS41NCwwIC0yLjc4LC0xLjI1IC0yLjc4LC0yLjc5IDAsMCAwLDAgMCwwIHYgLTYuNDEgYyAwLC0xLjU0IDEuMjQsLTIuNzkgMi43OCwtMi43OSAwLDAgMCwwIDAsMCB6Ii8+JiN4YTsmI3hhOyYjeGE7PHBhdGggaWQ9InBhdGg5MTA3OCIgaW5rc2NhcGU6Y29ubmVjdG9yLWN1cnZhdHVyZT0iMCIgc3R5bGU9ImZpbGw6I2VkYmQxMSIgZD0ibSAyMS4wNSwzOC4wNiBjIC0xLjUzLDAgLTIuNzgsLTEuMjUgLTIuNzgsLTIuNzggViAxOC44MSBjIDAsLTEuNTQgMS4yNSwtMi43OCAyLjc5LC0yLjc4IDEuNTQsMCAyLjc4LDEuMjUgMi43OCwyLjc4IHYgMTYuNDcgYyAwLDEuNTQgLTEuMjQsMi43OSAtMi43OCwyLjc5IDAsMCAtMC4wMSwwIC0wLjAxLDAgeiIvPiYjeGE7JiN4YTsmI3hhOyYjeGE7PHBhdGggaWQ9InBhdGg5MTA5MCIgaW5rc2NhcGU6Y29ubmVjdG9yLWN1cnZhdHVyZT0iMCIgc3R5bGU9ImZpbGw6I2VkYmQxMSIgZD0ibSAzOC41NSwzNy45OSBjIC0xLjU0LDAgLTIuNzgsLTEuMjUgLTIuNzgsLTIuNzkgMCwwIDAsMCAwLDAgViAxMS44NyBjIDAsLTEuNTQgMS4yNSwtMi43OCAyLjc5LC0yLjc4IDEuNTQsMCAyLjc4LDEuMjUgMi43OCwyLjc4IFYgMzUuMiBjIDAsMS41NCAtMS4yNCwyLjc5IC0yLjc4LDIuNzkgMCwwIC0wLjAxLDAgLTAuMDEsMCB6Ii8+JiN4YTsmI3hhOyYjeGE7JiN4YTs8cGF0aCBpZD0icGF0aDkxMTAyIiBpbmtzY2FwZTpjb25uZWN0b3ItY3VydmF0dXJlPSIwIiBzdHlsZT0iZmlsbDojZWRiZDExIiBkPSJtIDI5LjgsMzguMDcgYyAtMS41NCwwIC0yLjc4LC0xLjI1IC0yLjc4LC0yLjc5IDAsMCAwLDAgMCwwIFYgMjMuMDQgYyAwLC0xLjU0IDEuMjUsLTIuNzkgMi43OCwtMi43OSAxLjU0LDAgMi43OSwxLjI1IDIuNzksMi43OSB2IDAgMTIuMjQgYyAwLDEuNTQgLTEuMjQsMi43OSAtMi43OCwyLjc5IDAsMCAtMC4wMSwwIC0wLjAxLDAgeiIvPiYjeGE7JiN4YTs8L3N2Zz4=;" parent="1" vertex="1">
          <mxGeometry x="990.5900000000001" y="352" width="129.48" height="96.47" as="geometry" />
        </mxCell>
        <mxCell id="VrKKvqY3dBjmQD-Xjk8_-2140" value="DEVOPS" style="rounded=1;whiteSpace=wrap;html=1;dashed=1;strokeColor=default;strokeWidth=2;fillColor=#FFFFFF;fontFamily=Helvetica;fontSize=14;fontColor=#FFB366;opacity=75;verticalAlign=top;fontStyle=1" parent="1" vertex="1">
          <mxGeometry x="591" y="186" width="149" height="274" as="geometry" />
        </mxCell>
        <mxCell id="VrKKvqY3dBjmQD-Xjk8_-2101" value="" style="shape=image;verticalLabelPosition=bottom;labelBackgroundColor=#ffffff;verticalAlign=top;aspect=fixed;imageAspect=0;image=data:image/svg+xml,PHN2ZyB4bWxuczpjYz0iaHR0cDovL2NyZWF0aXZlY29tbW9ucy5vcmcvbnMjIiB4bWxuczpkYz0iaHR0cDovL3B1cmwub3JnL2RjL2VsZW1lbnRzLzEuMS8iIHhtbG5zOmlua3NjYXBlPSJodHRwOi8vd3d3Lmlua3NjYXBlLm9yZy9uYW1lc3BhY2VzL2lua3NjYXBlIiB4bWxuczpyZGY9Imh0dHA6Ly93d3cudzMub3JnLzE5OTkvMDIvMjItcmRmLXN5bnRheC1ucyMiIHhtbG5zOnNvZGlwb2RpPSJodHRwOi8vc29kaXBvZGkuc291cmNlZm9yZ2UubmV0L0RURC9zb2RpcG9kaS0wLmR0ZCIgeG1sbnM6c3ZnPSJodHRwOi8vd3d3LnczLm9yZy8yMDAwL3N2ZyIgeG1sbnM9Imh0dHA6Ly93d3cudzMub3JnLzIwMDAvc3ZnIiB4bWxuczp4bGluaz0iaHR0cDovL3d3dy53My5vcmcvMTk5OS94bGluayIgdmVyc2lvbj0iMS4xIiBpZD0ic3ZnMjE3NjczIiBpbmtzY2FwZTp2ZXJzaW9uPSIwLjkyLjMgKDI0MDU1NDYsIDIwMTgtMDMtMTEpIiBzb2RpcG9kaTpkb2NuYW1lPSJ2aXN1YWxfc3R1ZGlvX3RlYW1fc2VydmljZXNfZ2l0aHViLnN2ZyIgeD0iMHB4IiB5PSIwcHgiIHZpZXdCb3g9IjAgMCA0NS4yNyA0NS4yNyIgc3R5bGU9ImVuYWJsZS1iYWNrZ3JvdW5kOm5ldyAwIDAgNDUuMjcgNDUuMjc7IiB4bWw6c3BhY2U9InByZXNlcnZlIj4mI3hhOzxzb2RpcG9kaTpuYW1lZHZpZXcgYm9yZGVyY29sb3I9IiM2NjY2NjYiIGJvcmRlcm9wYWNpdHk9IjEiIGZpdC1tYXJnaW4tYm90dG9tPSIwIiBmaXQtbWFyZ2luLWxlZnQ9IjAiIGZpdC1tYXJnaW4tcmlnaHQ9IjAiIGZpdC1tYXJnaW4tdG9wPSIwIiBncmlkdG9sZXJhbmNlPSIxMCIgZ3VpZGV0b2xlcmFuY2U9IjEwIiBpZD0ibmFtZWR2aWV3MjE3Njc1IiBpbmtzY2FwZTpjdXJyZW50LWxheWVyPSJzdmcyMTc2NzMiIGlua3NjYXBlOmN4PSIzMC4xNzcxNSIgaW5rc2NhcGU6Y3k9IjMwLjE4Mjg4NCIgaW5rc2NhcGU6cGFnZW9wYWNpdHk9IjAiIGlua3NjYXBlOnBhZ2VzaGFkb3c9IjIiIGlua3NjYXBlOndpbmRvdy1oZWlnaHQ9IjEwMTciIGlua3NjYXBlOndpbmRvdy1tYXhpbWl6ZWQ9IjEiIGlua3NjYXBlOndpbmRvdy13aWR0aD0iMTkyMCIgaW5rc2NhcGU6d2luZG93LXg9Ii04IiBpbmtzY2FwZTp3aW5kb3cteT0iLTgiIGlua3NjYXBlOnpvb209IjEzLjkwNDQxNCIgb2JqZWN0dG9sZXJhbmNlPSIxMCIgcGFnZWNvbG9yPSIjZmZmZmZmIiBzaG93Z3JpZD0iZmFsc2UiPiYjeGE7CTwvc29kaXBvZGk6bmFtZWR2aWV3PiYjeGE7PGcgaWQ9ImcyMTc2NzEiIHRyYW5zZm9ybT0idHJhbnNsYXRlKC0wLjc1LC0wLjc1KSI+JiN4YTsJPHRpdGxlIGlkPSJ0aXRsZTIxNzY2MSI+UGFnZS0xPC90aXRsZT4mI3hhOwk8ZyBpZD0iZ3JvdXAyMjQ4LTEiIHRyYW5zZm9ybT0idHJhbnNsYXRlKDAuNzUsLTAuNzUpIj4mI3hhOwkJPHRpdGxlIGlkPSJ0aXRsZTIxNzY2MyI+VmlzdWFsIFN0dWRpbyBUZWFtIFNlcnZpY2VzIC0gR2l0SHViPC90aXRsZT4mI3hhOwkJPGcgaWQ9InNoYXBlMjI0OS0yIj4mI3hhOwkJCTx0aXRsZSBpZD0idGl0bGUyMTc2NjUiPlNoZWV0LjIyNDk8L3RpdGxlPiYjeGE7CQkJPHBhdGggaWQ9InBhdGgyMTc2NjciIGlua3NjYXBlOmNvbm5lY3Rvci1jdXJ2YXR1cmU9IjAiIHN0eWxlPSJmaWxsOiMxRTFFMUU7IiBkPSJNMjIuNjMsMS41QzEwLjE0LDEuNSwwLDExLjY0LDAsMjQuMTMgICAgIGMwLDEyLjUxLDEwLjE0LDIyLjY0LDIyLjYzLDIyLjY0YzEyLjUsMCwyMi42NC0xMC4xMywyMi42NC0yMi42NEM0NS4yNywxMS42NCwzNS4xMywxLjUsMjIuNjMsMS41eiBNMjguNjIsNDMuNzh2LTMuODYgICAgIGMwLTEuNS0wLjgyLTIuODItMi4wNy0zLjY1YzAuMDgtMC4wMiwwLjE5LTAuMDMsMC4yOS0wLjAzYzIuMTUtMC4yNyw0LjEtMC45NSw0LjEtMC45NXMyLjgtMC44Nyw0LjMxLTIuNjMgICAgIGMxLjU5LTEuODcsMi00LjYzLDItNC42M3MwLjUyLTMuMDIsMC01LjM2Yy0wLjUzLTIuMjktMi4yMS0zLjg4LTIuMjEtMy44OHMwLjU4LTEuNDksMC41My0zLjA1Yy0wLjA1LTEuNDktMC43NS0zLjA1LTAuNzUtMy4wNSAgICAgcy0xLjMyLTAuMTItMi43MywwLjQyYy0xLjcxLDAuNjYtMy41OCwyLTMuNTgsMnMtMS4zLTAuNDItMi44My0wLjYyYy0xLjQtMC4yMS0zLjA1LTAuMjItMy4wNS0wLjIycy0xLjY0LDAuMDEtMy4wNSwwLjIyICAgICBjLTEuNTIsMC4yLTIuODMsMC42Mi0yLjgzLDAuNjJzLTEuODUtMS4zNC0zLjU4LTJjLTEuMzktMC41NC0yLjczLTAuNDItMi43My0wLjQycy0wLjY3LDEuNTYtMC43MywzLjA1ICAgICBjLTAuMDUsMS41NiwwLjUzLDMuMDUsMC41MywzLjA1cy0xLjcsMS42LTIuMjEsMy44OWMtMC41NCwyLjM0LDAsNS4zNSwwLDUuMzVzMC40MSwyLjc3LDEuOTksNC42MyAgICAgYzEuNTEsMS43Niw0LjMyLDIuNjMsNC4zMiwyLjYzczEuOTMsMC42OCw0LjA5LDAuOTVjMC4xLDAsMC4yLDAuMDIsMC4zLDAuMDNjLTEuMjUsMC44My0yLjA4LDIuMTUtMi4wOCwzLjY1djMuODYgICAgIEM4LjIyLDQxLjIyLDIuMSwzMy4zOSwyLjEsMjQuMTNDMi4xLDEyLjc5LDExLjI5LDMuNiwyMi42MywzLjZzMjAuNTUsOS4xOSwyMC41NSwyMC41M0M0My4xOCwzMy4zOSwzNy4wNCw0MS4yMiwyOC42Miw0My43OHoiLz4mI3hhOwkJPC9nPiYjeGE7CTwvZz4mI3hhOzwvZz4mI3hhOzwvc3ZnPg==;" parent="1" vertex="1">
          <mxGeometry x="617.0500000000001" y="220.05" width="96.9" height="96.9" as="geometry" />
        </mxCell>
        <mxCell id="2073" value="Enterprise&lt;div&gt;Services&lt;/div&gt;" style="verticalLabelPosition=bottom;html=1;verticalAlign=top;strokeColor=none;fillColor=#3399FF;shape=mxgraph.azure.enterprise;dashed=1;fontFamily=Helvetica;fontSize=14;fontColor=#004C99" parent="1" vertex="1">
          <mxGeometry x="104.62999999999997" y="680" width="30" height="50" as="geometry" />
        </mxCell>
        <mxCell id="VrKKvqY3dBjmQD-Xjk8_-2141" value="MÃ©tÃ©o" style="rounded=1;whiteSpace=wrap;html=1;dashed=1;strokeColor=none;strokeWidth=2;fillColor=#FFFFFF;fontFamily=Helvetica;fontSize=14;fontColor=#FFB366;opacity=75;verticalAlign=top;fontStyle=1" parent="1" vertex="1">
          <mxGeometry x="51.74999999999998" y="497.64" width="135.75" height="135.36" as="geometry" />
        </mxCell>
        <mxCell id="VrKKvqY3dBjmQD-Xjk8_-2142" value="Autres APIs complÃ©mentaires" style="rounded=1;whiteSpace=wrap;html=1;dashed=1;strokeColor=none;strokeWidth=2;fillColor=#FFFFFF;fontFamily=Helvetica;fontSize=14;fontColor=#FFB366;opacity=75;verticalAlign=top;fontStyle=1" parent="1" vertex="1">
          <mxGeometry x="54.62999999999998" y="344.64" width="135.75" height="135.36" as="geometry" />
        </mxCell>
        <mxCell id="VrKKvqY3dBjmQD-Xjk8_-2143" value="DonnÃ©es d&#39;entrainement" style="rounded=1;whiteSpace=wrap;html=1;dashed=1;strokeColor=none;strokeWidth=2;fillColor=#FFFFFF;fontFamily=Helvetica;fontSize=14;fontColor=#FFB366;opacity=75;verticalAlign=top;fontStyle=1" parent="1" vertex="1">
          <mxGeometry x="51.75" y="186.82" width="135.75" height="143.36" as="geometry" />
        </mxCell>
        <mxCell id="VrKKvqY3dBjmQD-Xjk8_-2090" value="" style="shape=image;html=1;verticalAlign=top;verticalLabelPosition=bottom;labelBackgroundColor=#ffffff;imageAspect=0;aspect=fixed;image=data:image/png,iVBORw0KGgoAAAANSUhEUgAAAQMAAADCCAMAAAB6zFdcAAAAgVBMVEXj+f86uefn+/9Hvuo4uOnI7/nc9/7l+/8tt+ft/P+h3fQ4ueZ5zvDr/f/H7flXxOlvzO7U9PyK1PCp3/R/zfC86Pi05fbL7frb9/xlyOxxzO4ptuSZ2vR/0PBRwOmd3fW46PeN1/Gn4vNHvuZnxu625vqw4vd2z+yW1vNbwu2d2/VwtaTaAAAJ50lEQVR4nO2bDZeaOhCGIUQSjEEjFxUj7Lru2rr//wfehAkQPtzee86ibc887Z62GiB5mUxmJmkQIAiCIAiCIAiCIAiCIAiCIAiCIAiCIAiCIAiCIAiCIAiCIAiCIAiCIAiCIAiCIAiCIMifAql5YgfY03sQXDPD7okdULYDWf48EVjKqfnFF+xZPSBLTg1h/KwOBGwhwjAUPH2eBhk3PaBR/DRDYAuOGqAGqEGAGlhQg99CgyVqgBqgBhbUADWwoAZ/kgYmyWeM3G8ERYCvbsLuNLmngSsrPODdTGnApHm2+Unabspgn76+vub7g5zqlP1+l31m+Z5J8zVJ6uv7TUic77Ls6jdJ6iaTGrCEqfxqm8fzV1cmNCBqVdQcVd2CBNeN4JxrzWm4Po1slrHd0X5vicqUyF199afXjgRva940+bEnyWfdJLNNJjRgJC8v0FqLaruf2RjGGhBV0dCiI2XfWHwSlIctXJ8PPRXIruLd95zf8lLbQVXEaxL5d+CFKuy/9SqZ1IDkN++OIdUrNastjDQwEgjoalVLcI24CH2E+cJ/xVse9uFR/ce6acRIOWjCRX1LOqkBkycdit4zOc3kAzUgyr0yXsTmI7bV4RABBnJnfC2dBsc7TaY1GItq0OckmI2BBkYCZwXHwH6SbFoN7Nxs/vrejI+c7knQanBfpUkNOgmEeZ4tNMIjz/NNh74GrQS6YPUHDD4QPCzOu+XR2Yjgmetw2nSYcl5VXHvDdRqQN1BRGLcZmibcGPoXGsjMNTeGuEwXH2XjSfTHbCL0NCAqbCYCa+bGjlvXcI3tWi2DzE3UCr6Wa2cbvNiZRUSl5wvva8AC4SSgx/wQHFRehvy+BkRRASoXyizDjCWHLATRosMjNCD7CIaoi6BdJuSKi6yNCmTqurivNXt1w4leTThgZGMJyURPA3KCQfEqtXGBHVXQzB8+ocERzICfTFgAlijVBT7azmUIngaeO2Te4w4v/jKQwHTVy7rH7xzsdt96LOZUau0AFgladQsqkx9w2XhtbOYW33rrAEmdf1AzhQmdBo0vELQ49B7Wk5/t66WSl4l1Fu4dX/0m9expNCB7N6jUbyJf+LQdkBJc4Jr5PSA/oflpprWh1YCoi5va5RdyMybhxb5L6+543eVK9q5INrTT4AwaHPvdJ3UMMtYghqnPBxtvMfQsmtsO4mZRvLcIMZJIpvYLaFeY7pMVzIvTIDXYtnbASAGD2vW7Dx+PNGB5Y0LWHXZIWF7n2hBsNMgrcIf8ZUoCsyTE6XVbVCZKqF8V39ju35ydDwbYaRDEYDU8/k8aEJgjtFR75RMv+XjOfbcGIRXwBvRpIihNgnwb2QQmbOEb2Q4wGuyW+nagoHk1uKMsJv1B4sIpl6C1NOvI5Pv5Ng1aGBvaGwmWkBT5IbzVoBngbXCFr4Hz88dBk3savMMd+wlK99CZVseBBnw79L0mh5qIdUEDcOKbQc98DWCC83LQ5J4Gq7uRN7R/jB3w5cDB5bzXgMJSABrwyZ55GpD/p4H8WoPwOE/22GngDLC/LpFc09YybQGkKgUdaHD8Ng3IunvSFMPbfLsG7fv2SiTsEDV5GxfH5auKg2Td2oFbtotf+gMxlOmeHTifWJXlP4ZywGo3swY0g4UppDdvOC9QQBFildZVRtPPqtEgCOq/hpf760IAYaJYD556zw6WMNG2kiQGMmIWCVoN+Kt0EaygP9ppBwMORZS2JVIZNXMhYPVIQr2Yig+oHx8INdRgOj5IaSff42hipDdpU0SXtC0bEYibCF60Ly+tHbhyhx4UuiR8DLHyuwt++zLdsQMjGR0+7wF0+YKNBCqX0DV+kYEGhTdITwP2Aa+t6mtAiu5lunwBpk73UAjMJ3KmlWv+HA3si2J7twaIJl0GM/DL5J4/ME4RXlvPVzVpUq1BEyT13yz5cS9vhIKE6CzR9fKBdWXp8l7tnBjYAS+7HpGYtv4gkFAtFaKrMDD54lYSV0MBoxBe/YDILTSZqKEwWB1hbnb3XGRz7jA0GuxdcWwLCwGHcMT5RJ1CdsyITKHyDhoQ51CprSPZVI8kqi0iOw1y52OqNLEpIGESNhc6DfyzOI1XDOlKyTpsN8+MzyY0kPOpMNCABe8UXsRnPcizKxRlsVkaWfxRcPcKYYJLV/oS/H2Z71WaHbuosqmpNiPWx6vJBtPlpi28TmjQOFRzR/7juojjQGVHbd6LiY9mE2GggQn+nEvQr6SuGrnuRutyW0RddR00IKoZsUn0TKo3UVdub2hGpU0KyLsNiykNWNBoZhZpGkUX4VSl5WzbLON9JlfHCIWVRZ69/YVufK2jJ7vxHkxfg9bHjJnSoBZhMm+cb4dhvN8olzAsejH9YWR6k6hd7OTbvRG2gc7dJn2f2DhNxn5Mtefhbq7JwNLRme0me6N2k4ENd8q0EL4G5jWHgy4LqLZ1wR4ZNwmH8UF46bYPSCZG1qULNd9cSOsdbk8DxuJKd3kaY1s7C0T922ROy7qixLuwiajWEVKr5iU/dXFi06To3ICZ4Ot9PelbDayb8KtRJDbPpPBQ82O+vuWj2s43Ei9NRvbzp1+7N12oKX9C0KDO61BTI8BlswvktbRfLb3zCnK/rYSZxFrTyuR2EkrhN2/6mhX+51oYl6h1eCtzKT0NmDqV5fZ88jvFZJwdjTu0O3QiKrbpjCtjPYRklJGZNZnUaZv7Z8JUqhb5PraZkz1AkvQvMKu+Shf7NFWBaQFpBO0nPuYq02RhmjBzLamLZnTlHKuU45zQhAWL3FyQq5jMrMB/xERAvz5txGAgbqM5Grnx7nwR7C/QX9TGGGG/eOpvi9yEA38wAlJq2Gv7O4GaQfGFBgrWhe1srv7JuH1T/UUh3MRhtQbLuaKehzM4qCYhx9DdphAb7Ns2EYh+bKlkPthG9IbCFEyFsDuzdLjdejo1m+nznap4KBBGest3s8vauQMS3zS/eGcYSHyB0stMpfKHs7ExJD8FxMZxNtd/d/WCZiqweG0mPw3fYJUzq93CbVzR552R/k7IxtWdLp+LmAWHdOv2bpsDS7aqqiFCrrKFsX2Vl+6omXhs0XA2WLsXabegqkuzQyy6owJkbQN/g8m2oiqyQTekFlp9ees/Bsamdwj5Z3dAKS6iFi9z5B9/TXDATny0VS742YtwWbDSwuGplP0dM6FG9s5jw7Tob7owshzWD3j4xP/qPwPkcAq9IqGm5eiUuUnGdVuKo5qLc/BXSWCQ8duqqud6VK0yNZUI2XpAfXopitblLvg9kuHvxSTNcX146m6ua/Nq1TR5cO8eha08sq+3xOpjdn9oPQBBEARBEARBEARBEARBEARBEARBEARBEARBEARBEARBEARBEARBEARBEARBkP/Jv0mQk91bLT+BAAAAAElFTkSuQmCC;" parent="1" vertex="1">
          <mxGeometry x="74.74" y="234" width="91" height="69" as="geometry" />
        </mxCell>
        <mxCell id="VrKKvqY3dBjmQD-Xjk8_-2144" value="" style="shape=image;verticalLabelPosition=bottom;labelBackgroundColor=default;verticalAlign=top;aspect=fixed;imageAspect=0;image=data:image/png,iVBORw0KGgoAAAANSUhEUgAAARMAAAC3CAMAAAAGjUrGAAAAqFBMVEUaZpj///8AX5QAXZMAYJQAW5IVZJf///3u8PYAWZCLqcP+/v8AXZILYpUZZpf3+fru8/aRsMfBz93j6/E8dqNlj7KpvtB1mrjQ2+Qtb52Ys8sAVY8/eqZIfaYAUY0AXZa3y9lYhqzY4+mAob7R3eilu89ulbZdi7DG1N5Rgqlwmbp7n7uxxdjn8PAxdKWnvdSCp8CXr8mjwNDh5e67yt1Th6sATo0rcJwXpa3UAAAQsUlEQVR4nO1dDZuiuLKGfNGgCSiogDL4hWK3PTN9eubs//9nN6mAKOhu95y5ujp5n91pRQjkpVJVqSQVyzIwMDAwMDAwMDAwMDAwMDAwMDAwMDAwMPgoBMEIEc6YxW79KFeC+Iefed96Lt5eNossEoz0JT2I8+s82q3AEdVScFYIGEbb/ZOt4Dh+EC7XP4rBajK6+mP+Tvy9tEtCtuN4XrytRlmCXJdirNipICy2Gwe2Rs9xNDXy/3J7r42IEUopJhcVAaFku6+rLMWgFyzX83HqVRUmUnqskVfs5+vQ79kHvA4E/of29q8EY7xPopdhPBwPXrazhDGE+uhIBCSSlxKocNSrd+Cj+me9SuRZHIvnfeqNsr9En3758mXKvy6eJT/lcEslI3cnJowRnGy/rZ3Dq+354bKcF4NJpE+QIoDYwku/zeMwCPzDif56ZVHCGGaNAPUCuNabbHezHOf9+1SvyXYQ++qV9+xaAEAEwmIkXzDHOBukq80istypFABqzRab1WBfLtdeJAmRhmYxfrUrETrGenR34nHAqBjGy9A/qZAfe5myLpju0iX8Iq1IEILwbDOLk74ElorHYsIbLsPAPuXDfi1mmN+jGtHgCCMp4dFutCrm5TLwg+EmkY1FELQYh/YZhEUidYTglCeISunJMRNSepT+kJcrEXmW7enW9frfIdUsIQjntC/dUFCuURGcI8Tf7xARkkm+mMv6B6EyPpPFTCA6laBcRF8xqRgh5KaV+lV03ierjgjEhZSddFy+B37VtPz5SKlNqXWzcZsxpZiHxY7VBTCWs016h6SIhCDpfyunRNWkrQGYbFhY+mZWJBVrup9YfaJOydJOmwIF68+3oi6C9YUX2sP+devzG8DYMlwO99Iv3SUC077sm5zXA7JlIeWUASJP6p0QNMcRKfZylRy0CKOzQvn4e3SdivxOoHVtMWTvRHZOvOekknwiHQ8mznf5pIGWOjjKthPZsuLQBxFZcFS3OqmAS81Yga9Wld8GtG83Ag/eLNt+30a8n+PK2T8HpZaRcul5Ei1EXntnTGpYlpyUdl8gq5ZasMfwZomn1WY8/OaNdn8Jdmg4p0pZqyHJDtMCxRBOihSxqCpvdYc6li3s3ikrJXDCN3bTrwVyyroZcNkTIufVjhSc3d6RDYZlVWmTO5QTFp1qStt+h1rwXcsxlbxQEAXiDcGZTRiludLJoqKHCUQ2pbosRXxXXTS6y/5O26oGUEWW+C1SHEfLCfqmGfKf3su97AipQAr8IizvXZ/6hvioumpxj5zguC0OM01KW35sW/df0KB1uCc7A6rmrJYNqVjJc/Xb7h5d/P63dtV38GpRt6ejtWtbKyuVE6j2xn/WB74j9HJC8J0BfW9XcQKmgq47nOj6kUnnB/sJOFnUX1+QNluSk+QeOeHb0+r1KpcCzzs117qBbC5xcihpgtCb/hTctG6/irbh6dl70Jio6NR8A5wc1GeHk1FzIh5XP1zoKvy7wfhTq4IxdNuQ16m59r/agtVwchCgEa+lLLxD117CbSuOpRaHbhPxKs/lE5ws769brNBuJE4AJvfgiTbQjizLOt6c5qRRND85HupPJb1p3X4VqG1bnQi6MIndhu4JsVnXc2lxsmO01J+G99l2+KL93rV9QZ2qz3N1vNsbqDmpjbSfMRrDIJC/usPujkLSrqN2UNxONLZqCEk3TNviJGJUBfudcYLFfcbuyfC16hpXAzspvNyu07bUnIgLnPC6EUpOXNnzmUf3G7tn+RSJ3STdr6shvjkoga7TFrpwuuh6/S1OEuYGZeT+07SMfzs4QZhSMht5xXCs2g6r3a4GgeaEX+Dk0BEKEsYW9G5lpAXBCCJ9bSvIRA3vNZAaU4/akOUFTrzqvEAwi925jFwAylmSjVbfhutQa2FHHyft6ELFCXi+svGF92psPgbGkGxTiCWzrTculwkcxN0es+YE+n2+x+4wBPt5MBjeyXOtIvC+d5YTnEpGCvLQQtJGrSEEcqWZknLTjHoFSjRIYe8TfH/zb34X1DQdqkZMJ2omShAqTtAmu1+H5KMQf1dDAcN9yoRjJKCHJO4yVvI5sK/cdTEiH6jp6Sn3GKr/INDeDuJ5+pxJq5wjfmmE9BSM4WTyuIanibQFy2HxfTtLPnAR4V7vTgMEHwFqR9p8HUARjOcYoXNSw9FGOv77+wwkfQStIKNTBwv46L0sVqPMolQNjTbcMLqL1dyc8ePKSSfS5rxXnOhvwVM5Hmwyqy8VMdidZK+jU/95XE5EJ3gUACfo50FwFHrBcp4qU5Pvq0Pp47qygnWG18GgsKwTfISx0bye3vP2uHZH4HZQQI/qnQnIQn+H1kEo73E5seiwVXU9+su+nucE/wmcoHakTc8SYN0gNXCS15w8cvykOzwK0zCYdYGTWqzucb7WR9GdQQAzsRgP2iNCwEm/GueyNw/cdrqj5TCzQODwLCdUxySdO53D9jF0R0FfQE5oJ3APnLhVnNa5yzlsH0RXmXrKQxW0E7g/4aSa/PWoaE9NScFr744Qak4qqnrZI8eW0NGSJlAhYz2tq+23HHGihonvcl7fRyHwtB9t3ub1oOnFUdNjOXHSh246lhod5ghTlGxXRfnu63nnuLNu4YiTZeY+5hBgB0wzA7FoC//nIidO+meN7xxWxbHZpCiXfqNmKk7e7XX2uKGTf4CSGmRFo7d5rK01xApo+EbQH9JuLgHak8uyl6JcK05EcjZG+weCMZRTqj/d+lkM/l1gj+6B/AKSraXWeH1sZPDPgJpiHaz33jYhkCeH3ftkvt8A9lftq/nLebqZJfxPN8ES4nhJqZSZ9+EDR9Y+Bsbbk7eCP8yhPwPajr89GU6mhpMO+u34m+FE9YANJy10ArKGEysvDSdt5O0gteGkGS03nByQtyccGE4sPG6l7TOcWOR7YOSkBcFFNEqHepDQMZxoMKbSkYlsNYbIvekDNmAI0zzZDsaGkxMIxpGJKRkYGBgYGBgYGBgYGBgYGBj8f4LdeA6YuMUDMHb5rhxbScLp7YJSxLWyXYR/JZ0NpxXwp+ckIZfPdjOLnptSzHflk+8HcXQjUWH05b3n2I6/Tz4dPyWT97VEvC73K+scp4wJfo4uwehGb40VFkk7RsnYrprKEjEVwvzsU/3PYMm62qvNdj693LVOug3XF2feOBOzTTo4U6waXHaqKzu7Z9TLo0JkRVtv/JEMK78TjK2batmbT5JCmrXGPdtedwRCv/B1N/NJvxlbdjo7ADBIieD46/0XWPxz7SznRKfZC0GQVU7Gz1/dVG7fzqms1t32znBSZ6cN1DBQ6bZuWi3fnkw5VR96V8/8ru7qrNF0B7MW0/xTF1f7rGx3K6iF097fQCdFiTucwJowxx9ZyeJHd6Egg7yrzk/OUHADOakyuWyIcH9AC8YWR4RiQahLa6UpEHVdaR/UV6RWdklzIw/wAycRpzp7jhQUwThWv2KusoiOIJHOVGXpEpz2XVWOJSy9FjmVZXJcrSdliE7VTQSzOANOFhhBBt+eQFedya9Tn/ZElYDasSO+GIzLNX1eB+E+A4uAyEsZButxJJUNm6TzeO9uyjAsR/0DJ8xCsOHkE2e5WM2Xr8FyvsGMPIM8hN4gEpiMxuswCEtP5IJApfVqfU0JstJYXvUtosxKBmrxpVN43ndo0QNvc01S9ELpgAq910fP9lyl851qofQzFwxF9WLqSW5x9ZBhpSBTdOCE9SFDkD9L5odNR2MrX9a7kI5wGtSKPMi0INhH2cnQpp5I6hHeyo0uLxpeMz/VFJbDQvpknSdpPh3azfxwP5GifFhf7uw4CZpfHTtBjZykuhEeb7yynx7yp27dJpWqE3IMxcTNhoGjZuaKl3fzxf+45oLCHG6pMmcxS28q/EVx0nN83+nJAynSlS3VRojSQnCtS6uNAV/ogZMqnfBqCqfrWea9/hAagR8EP9FCOUA9+M8eVWTFk6Ta7wv0SzwEWUtmsKmvEwRBta4wuGbOLkkE1FjdkoPAL0FO7DhJ4DHXWszD6XSuKpeAnNj7ZAZ/B0ec6G1kPMT84WYWpVqOCPyNUSJVaLx8yaJnINOjaSVpfizVjqX3oFlSTZWH9L0nlpgBtdHf55j83Zzo9SWQYg+BnIQgJ3ZBMTx2gCCzx5hqOdj0gYst0XsWDdyGE52yPZWtAXFGXChspusO/olaps2qrP8DlDRtpeTSb1VfC6Q3Noqxzvc9IRz2RJP+yTWNcbURG6iwE07GqEr9ksAeER7RdfZ0evsRRxc5gdT1bAqtZ6aJrfwTtU82gtIHpMkGKF06V0DqlBVHz9BmMKs4YTUnV6TEYl81J9L/FDlwsqw5YTrfWgRfn/McKlFc5kS3nTckW4mUlWnPaXMiiHQzEEjEgFhot+7V2nqj9hdw7AknW2hQ4racWAc5EVpO4gMn0Jbt2VpZ1nC5hMcc15yQNifV/horgqIiDkNtq4454cKTTo3O6y05sTjeDdZ6N4Eygq3DN7za0ym5KScWBiJ0h0S37gMn2iJmR5t/S+V6mRPd85m4kyNjfMQJy16b4wPtrOF8A5w8RdqH4ZBL0rk1J+7BP6nyOO6np5woOWmmvc4vc6L3ptlFvnr35bzNCdbW9kfQcKJuD+cFma0TLpHFv4ETnQEqoIeddVZuzYnuwfwFhuJtCxjN0EVOhsr/CAhQM5n+t6VjoVU4+y/T4Qkn2g8OIlAtsu2M7Nvrk8r9dNjBcES44qRKr2XBmxxQLkEQI5c4ga0hnPK/SpH4X5l7LCeyaWoru+Wk4kRo+0S0wSeQxuyFaz/l9bZ2p5YO2RtzIaVL2EcVJ/r5Aq07S5XRhVjsEifI1bZ1NVW1CQSjzqmc6Ln4O17ZYiQmOZe2WSeMKb+A0hogTVGcWzflpNrSYWlNdVrPNNdPXbhT4CjGoGZ6iymlm/DrBU6+T1K4+pVDEMD/yqd2Y4ud+AumhTqwJTqD3cBdSb8+YpFOreO50OLKqfZjB/iUEzvpXzd/Cl840CUJQdkGCQNOnPD7AGrpEVip5PTiUvpVP+g5TkAk4J8RohBmXU23cCDrD5SWcfbDHUjdcPqX1rGuctJ8H27h9LjIdEAXhEml1Kw50Xo/Hl8596zUKI21nSDNSQVHtgKeOfXvjr3Nn5xjTqYnuR/lC+a6gxvoqPdzv94ccMV1bNOHH8ZNekT5fYIsWtR30Ll3K04sXK1qWF45lzV+O0QGXnLLOubE3yrnanTwOMJFfurHHnHihCOscnLNdd3eVaFDzKpAQzFd6eOhMkjhpFnB4a9UwzhkmZWaTBzk5LCz6yu58ugXnc1D3w/CAgJpmpN4KY8MdR4klBRhIL+uXwjn8+FwWO4QL0r5d0M28o/CPB2hyhEbyHOfvMwJ5qsZQsn8VbaRpxXHG1XkPgmDcrBAbDKEMuVNta6gmzXcYyS7yYyNVZkqnI88+Wh+ML/6fhuMkmiW6JTarNaxUWRR3R8VDJNEfSWqyhRjyoSFKMWUH8YBMeLVmxSYz2aC8JksVVUvt2ZZQrAQBMNNEkFlv0cgla8rktqzriynQt0D0mlaWJYIvwiEomzG+jfIkdGM3FacjPFp//xvhnbPFWYd5wxqyobjxye2L7xc3C1Rc2KWmTQwnJyB4aQLVNq94PWRk4x/HuznNkseebOcX8Ht9byBgYGBgYGBgYGBgYGBgYGBgYGBgYGBwePh/wD50hhzBhD3owAAAABJRU5ErkJggg==;clipPath=inset(9.02% 15.45% 11.2% 17.27% round 12%);" parent="1" vertex="1">
          <mxGeometry x="64.81" y="540" width="109.63" height="86.52" as="geometry" />
        </mxCell>
        <mxCell id="VrKKvqY3dBjmQD-Xjk8_-2137" value="" style="aspect=fixed;html=1;points=[];align=center;image;fontSize=12;image=img/lib/azure2/devops/Azure_DevOps.svg;" parent="1" vertex="1">
          <mxGeometry x="615.4999999999999" y="334" width="103" height="103" as="geometry" />
        </mxCell>
        <mxCell id="VrKKvqY3dBjmQD-Xjk8_-2148" value="" style="shape=image;verticalLabelPosition=bottom;labelBackgroundColor=default;verticalAlign=top;aspect=fixed;imageAspect=0;image=data:image/jpeg,/9j/4AAQSkZJRgABAQAAAQABAAD/2wCEAAoGCBUTExcSERUXGBcZGRcaGBoaGhkXFxkaHxsfGyQaGhoaICsjGhwoHx0aJDUkKCwuMjIyHCE3PDcxOysxMi4BCwsLDw4PHRERHTEpISUxMzkuLjMyMzExMS4xLjEyMTMzMTIzMTExMTExOTExMTExMTEzMTE5MTExMTExMTExMf/AABEIAJcBQAMBIgACEQEDEQH/xAAcAAEAAgMBAQEAAAAAAAAAAAAABQYBBAcDAgj/xABKEAACAQMCAwMHBgwEBAcBAAABAgMABBEFEgYhMRNBUQciYXGBkaEUFTJVk7EjQlRicoKSosHR0uIIM1KyF0NTYxYlZHPC4fAk/8QAGgEBAAIDAQAAAAAAAAAAAAAAAAMEAQIFBv/EAC4RAAICAgECBQMEAQUAAAAAAAABAgMEERIhMQUUIkFRE2FxMoHB4fAGFSOx0f/aAAwDAQACEQMRAD8A7NSlKAUpSgFKUoBSlKAUpSgFKUoBSlKAUpSgFKUoBSlKAUpSgFKUoBSlKAUpSgFKUoBSlKAUpSgFKUoBSlKAUpSgFKUoBSlKAUrGa1Rfxb+zEil/9IOW9w6UBtUrT1HU4YBunljiHi7qnu3HnUZZ8Y2ErbEu4S3cC4XPq3YzWNgsFK+Q1ZzWQZpSlAKUpQClKUApSlAKUpQClKUApSlAKUpQClKUApSlAKUpQClKUApSlAKUpQClKUApWM0zQGaV4XVwkaM8rKiKMszEBQPEk8hVVl47iclbGC4vCCRuijxECPGV8L7RmgLcSBVCuL55rmSz0yREYnfd3fmvs3Z2xRDo749i8+8mtK3vptXDPcobexjLBo1k3Ncup57pFxmJcc9vI9xOOW1w8WaRxFaQQRKQFwg7RhjOTgAKcEePPl3VzMzxCFKeurX3N4x2b9rwhaQkOyGeU/SlnJmkY+OW5L7AK3brTYZF2SRRup7iikfdyraye+vCylZ13Mu3JO1epAz1J8T19HSvG5GdffN2KTX7liMUlogwJtLO+2DzWf49vktJF+dCzcyP+2T6quGkapDcxiW3kV0PevcfAjqp9Bwa0jg1RuJdYh0+9jntyVlYqs8SoyrPGSM45bWlXIIxz7u/Feg8H8VsuapsW38/+kVkEuqOq5rGa5xc3VzqE5ZJZ7REU9lGjBZCcZ7ScDIwThRGeeMnlzzKcM8dWxt0+XXEUVwu5JUZgp3oxUsB3BsbvbXfhfCyTjF9URNNF1pVd/8AG2nflsH2i1u6Rr9rcsVtp45WUZYIwYgdMnFTGCVpSlAKUpQClKUApSlAKUrWvryOFGkmdY0XG5mICjJxzJ5DmRQGzSoE8Zaf+W232qfzp/4y0/8ALbb7VP50BPUrxhlV1DKQysAQQcgg8wQe8EV60BmlKUApSlAKVilAZpSlAKVilAZpSlAV7Wte+TvJvQiOJFd3xuZtx2pHGo6szcufgfEGq9onGknyq5W+McUcMHa9mnnFANpIkf8AGfDoAF5ZJHUc7LxbpPyi3kWPlL5jxnl/mRNvQHPLG7l6ia5lpth8qvkhmMgDSPcTRPE0R2IFxHI7f5iB1jXC+byJ5nGIZzcHt9tGUtlq0/TH1Ire6mCIfpW9mT5ir+LJMB9OQjng8gD7K3tVkN1J83W57OJEVrp080rG2dsKY+izgEk9y57yKmZpNx9FV7hKYIbqGXAn7d5Hz+PG30JAf9AQBPQVINcCPirtdkl2iui+SXhrRK3NugjEEShYwFRVHIBR3D2V9hAisVHcT7hWYJAwDjoeYPiPEeuvXGeVeWsulZZ6/d9SZLSNTSbjtYY5M53orE+kgfxqJ400ya4iEUUrRqSdwTkznHIFs8kzzPjXpwOx+Sqh/wCWzp7EkZR8BU5Uk5vGyW4ezehrlHqRvDVi8FukMsnaMgwWxj2dcnHTNQ2v6ZJPIJX2fgnhZB2YLbzIhwrnmMKBk9CTjHKrXXyyA9fEH2ilWdOFrt92HDa0fQUdw6n/APGvzxx9a/8Amc0aD6Ui4HiWA/ia/Qsj4BJrh8GLrXCy81WUt6MRDr71Hvrvf6Z5Tum/bX8kGS+MNl/h4etVAX5PEcBRkxrk4GMk4517+RmyTffXMaKiPP2aBQFULGPxQO4lvhW3ICQQDg4OD4HxxVU03hu8gTsrfUpI0yTtVMDJ6n6XWve30tpKKOLjZCTbnI7RSuQ/NepfWs37P91aGuWurQxNLFqUsmwFmXmjbQOZHM5I8KqPHmlvRdjk1N6TO20rifC41C5t0nfUrhC5bCjn5oOM5J8QalPmy9+tbn3D+dI482tpCWTXF6bOsUrk/wA2X31rc+4fzp82X31rc+4fzrPlrPg183V8nV6VxfiLWtV06FnS7E8bYXdJGvaRk94PeDjvz16d9afD9rqtygmn1CeJX5qodtxHjtBAUeFafRny46JPrw4899Dutc3/AMQV/wBnpyxDrNKqn9FcufiFqI+Yrz61vP2m/rrR1TguS52i5v55dudvaZfbnrjc3LoPdW/lp/BH5ur5ILyTaRHN20s8SSKNiqHUMATkkjI69PfU7xvo0HZwwwwxpJPPHErKiqwyeZBA9VTfC+hpZQmFGL5csWIwckAYwPVVa4/aeW9tobMkSRqZAwONhJxuJ7sBetWZV8ata6laFzsv2n6UdyhjCqFUYAAAHgByr1rjkWlamQN+qyg94AJA9pYfdXp81al9bTfs/wB1VvLWfBb81V8nX6xmuQ/NepfW037P91fMlrq0Q7WHUXldeYjkUbX9HMkZPT+IrDx5r2MLKqb1s7DWK4DYcSazqcrdnOYUXG7YOzRPRyBZm9GT7KnxpWpfW037J/qrEaZyW0jed9cHqTOwUrkHzXqX1tN+z/dT5q1L62m/ZP8AVW3lrPg081V8nXqVwviVNWtojMmoyyKv0xkqwGeuMnI51s6LbanNDHMdTmQyKG24JwD057vCtfoz3x0bvIr48t9DtlK5B81al9bTfsn+qnzVqX1tN+z/AHVt5az4NPN1fJ1+lcg+a9SHTVZvap/qqX8n3E938rbTdSKvJsLxSqAN4HUHAGeWTnAPmnNaTqnBbkiSu6E3qLOj1UNQbGsLn8awcKfSJlJ9XIj3VZtRvEhieaU7URWdz1wqjJOB1rmk93NLNHrUqlIkKxxxfji2fIaRwOW47g+O4IK5+bKP0ZRb030X5J49y8iqvxXZo91ZgsULvIjkHbvjCbjGT37iFGOvWrQK1dTsY54zHMu5Tg9cEMOjKw5qwPQivAYl30bty+6f7lqS2jaHoqHvOI4UYxx75nXqsSmTB8Gf6K+014Pw87jZLd3Ekf8AoZlGR4MyKrMPQTzqTstPjiUJGoAHIAAAD1Acql1j1Pk3zf26L9zHqZG8IxtFb/huTc3k78MzM7Dl1wWqZSQSJuiZSCPNYYYA+PLlSYhUOBjka55pvyhtRke1cK7qxhRj+BuOxISSNwPouT5yuPA55GrGLi+fslLs+/2/BiUuCJVOP4I7mSzmWTekhjV1HabyDj6K8w2e4A1JpxpYEZ+VJ6icH2g9KqtrwfLLcNNHZzQzO7M0szoYoS+dzIEYmZhk7eg6ZxXUtM0WGGKOFUQiJVRSyqW5DGScdT1rvvwLGn1aaeuv5IvqNHL+PuOsQEWauVc7O22kIDjOFYjzmwD06eNVryOWuZZpj+KgUetjn7l+NTn+I6+/C2tsOio8hA/OIRf9je+vryUWuyy398kjN7B5o+Ib313fC8KvH1CC/spZtj+k9kzxNqjW0SuidpI8iRomcZZs8s+ytPV73U7aF557BFRBl27ZDgZx0BJPMjpXvdRdvqlhb9QjPcOP0B5v7w+NSH+IC/7PThEDzmlRf1V88/ELV6++am1FlfGxq3WnJFb4M4xN7MYWiCEKWBDFhyIGCCPT1qwcQ3PZW00h/Fif3kYA95qi+Rq086acjoFQe07j9w99WrjiNpYUtkOGnlRM+CjLsfYFqxCcnVt9ytbXCN6jFdCj6Tx7LDCkKQxkIoUHzsnHecHGT1ra/wCJE/5PH+//ADq/6RpUNsgjhRVHececx8WPea92uYwcF4wfAsufdmsKuaXWWjaV1UpPUNnOf+JE/wCTx/v/AM6t3BevNexu7x7GRgDjJVsgnlnoRjp6R41L/K4v+pF+2n869lIIyMEdxHMVvXGSfWWyK2cHHShohOMV7SOKAjPazxqR+aDvb4LU3I4UFjyABJ9AA+6oW7/CahEndFE8h/SciMZ9gJrPG932NlM3QlNg9bkL9xNZ3rlIxxb4QNWw1HUbtO2sbJXhLMEd5FVm2naTgsMcwR7KrVx5Q7hJGiaCPerFCAWPnA4PMHnzrr2goNP0iMty7G27Rv0thc/vE1+d+FLcz3sStz3SBm9ODuPwBqhG+cpa33Om8aqMd8ex3GEkqC3I4GQOgOOYHozUJw+okubyf/uLCp/NjUA49BY/Cpq5mCI0jdFVmPsGf4VFcGwlbSMt9KTdI3rdi33EV0X1kkcmPSMn89D74g1YwGOOKMyzSttjQHbuI6kk9AMitC91DVIo3ml00KiKWdu1Q4UDJOA2Tyrc0OLt9ej71trdnPgHfzffhwfZU/5ab/sdKmx1lKRD9Y5P7oaqV18lNqLOlj4tf005LbZQuFuOjc3CQPCE35wysTggE8wR05VdJpAis56KCx9QGa5V5IrTfdtJjlGjH9ZvNHwLV0DjGUraSKv0nCxr45kYL9xPuqxTOTrbkVMiuCtUYo+OCLfZaRnADSbpG9bkkZ/V21jUtYm+UG0srY3EqoJJBuChFOMZJ7+Y9461M28QRVjXooVR6gMVqeR+LtZ9QveoaYRIfzUGeXsKe6sXTdcEom2PWrbJOXYgNc17UbOPtrrT1jTcF3GRT5xyQMKSe417cE8VG+Lq0YQoAeR3Ag8u/oa+/wDEhqGI7a2B+kzyMP0QFH+5vdUR5HbTbBLN/rcKPUoz97fCoKLZymk2WMmiqFbaRY+MpMWcgHMuFjUel2C/xNSltCI0WMdFVVHsGP4VD8Q/hJ7OHxkMreqNcj94ipLVrrsYJZj+JG7e0A4+OKub6yl8HP4+iMfkgLPXb64aU2Vj20Ucjx7xIBkr6CRzwQeXjUNqHlAnglaGe0VHQ4de0OQfDIBFdL8j1n2OlQluRk3ysf0mJB/YC1wDUpmvL53HMzzsR+u/IewEVz/rzb7nW8tUl1idwsrgSRpKAQHRWAPUZAODUbwxH22vFh0t7bn+k+OXuc+6paKMKAo6AAD1DkPhWt5GY+1e+vT/AM2fs1P5kYyP9491WcqXoSKeDDdkpIv2oWizRvDIMpIrIw9DAg/fXNfnB9Oi+Qakp7MAxxXG0mKSPuV8fRcDlg//AGep4rU1OBnikSMgMyOFJGQGIOCfUcGuNkY8Lo6ku3Y6ybRTfJ/edta5DFkSR44nPV41OFJHiPo+nbXrxvqLW9rJLGR2i7CgOcE715EDrnpj01DcP6k2nW6W17aTx9mCDKiGWF/OJ370zjOc8xXnpt/HqOoWqQlpY4mklm81gisqYjyWAyQ/MCvMf7XZPO3KOob39v8AGT81wPrVtX1OK5SzWO2eZ4+0/BtIFRM43OXUYGQeQJNWvRoZEiVZ2VpMsWK525LE4XdzwBgc/CtLj6yeGSPVIFLtCrRzoBkvbk5JH5yHzvf4VD6lxYjKgtmWaSUqkUUbc2J72HVVHeTUvifh0nKNdEEk/dfJiE/dsk+KdTKII4uckh2oPzufP9FRlj6vTUQkSwXOmAHzUmaPcepZ4mUZ/Sb4mpG24DlYi4lvZEuSCG7NUMSKeeyNWXIA8c5Nb9jwVtmjmuLqWbsn7REKxou8AgM2xctjPKr+F4XPHcdNaXf7s0lNMuGKzWa8LmYRo0jclVSx9QGTXbIz82+WG/7fVZ8dIysS/qAA/vbq6Xw5a9jbQxd6xrn1kZPxJrkWl6bc6hcSTQRGVu0Mkg3Ko85i2Mse/nXRI9Z1Jpmt104GVEV2USL5qk4BJzjnjpnNT499cJNN9fj3KmXTOyKUSc8n8Xbare3B6QxxwKfSx3Nj1FfjVV/xG6huuYLcHlHGzkfnO2PuQe+trhvi19IZ7W6tHa6uJTM6q6DaZDtVO/w3dfx6rflQ0y9mnl1Ge2MUZKKAXjfaAAgHmtzyR3DvqGy2PP1Pq+xYhDjBL4LP5LbTs7FWPWR3f2fRH+341v3bCTUYY8/5UMkmPS5EY+APvqE4T1K/e1j+TWKyRquxX7RV3beROCR35rVutK1hrz5alrsbAXZ2kZXaBgqfO5g9anfiGPBKDktrv1RR8rZKyU2u/YvtzHvRkyV3KwyOoyCMj0iqA/kzyc/KT9n/AH1P/LdVAydNX04kT7s1XZfKNKrmNrUBwdpUswYN0wRjrmpfN413aSevgjrx8mv9J9f8Mv8A1J+z/vq9aVaCGGOFTkIirnGM4HXHpPOom1u9UkUONPQA9A0qo3tU8x7a9e11X8hi+2T+dQrxHCrb1Nb/ACbWY2TYtS7Hzw+4kubyUHOJEiHoEa8/3ifdW1xLpQu4GgZymSpDAZwQc8x3iufrJqGlTZmjUm5LN2eQ+9s9RsOQ2Wx6fTVwivtVYAjTRg+MiqfaCcipFn4/D1yWn9+5izEtU1KHseN7oF9NG0UuqSvGw2spTII8D5/OvHhXgpbOYTGXtCFYAbNuCeWc7j3Z99b3yvVvq1ftU/nWtc6zqUckcT6eA8pZY1EiksVG44we4c+da15OG5eiSb/JtOGW1p/wb/G8+yzkA5F9qD9dgp+G6piGIIqxr0UBR6ABj+FUnirTNXvI1iOnsgVw+RIhyQCB1b0mpXTpNYSMLLprSMABuEqITjvIyefqxVhZMOTZG8Sz6aS7mbvQ7lbmS6srswNIFDjYG+iAORPdyrR1zhq+vEWO61DtFVtwUx4AbGM+bjPIn31K/KNV+qn+2jp8o1X6qf7aOtG8dvZJFZUVpfwY4Q4cSxjZQxZ3ILsRjp0AHcOZ99Y4gcPc2dvnrI0rD0RqSMjw3H4GvtH1Z/NTTdhPRnmj2j0kDBNVXWOEtaiu1ujH2sgIKtGyso/N2nBAxkYxWZXwjFRiYrxbJSc7O50WqppugX1qrR2eoGOMuz7ezBOT3knPPAHurZhv9UwN2lSE9+HCjPoBBx76+xfap9VSfaL/ACredtM/1GldORXviQ2tcGXV3IJbu97Rgu0EpzC5JwACB1Jq1aJpiW0KQx5Kr3nqxPMk+3+FaAu9U+qpPtU/lVd4v4wvLY9jJai3kZdwLOJG2kkbgByByD18OlaxnTDrE2nVk2dJdixWzCXUZGzkQxInoDyHefbgAVucSae1zbvArBS+AWIzgAgnl7KhPJdCwtGmcktLI7knOTjzfvDVIa3rMsUyW1tbNcSOjSbVbaVUHGeh5dfCplKPDlL3IJQk7eMO6NRNL1MQi3GpYiCCMKI1GEA27QQM9OWc1o8M8BrbyrNLL2hQ5VQu0bu4kk88VKfOGp/VMv2g/prIv9U+qpftFH/xqunjp7RZksqS0/4JDiK9EFtLMTjbG2P0iMKPWWIqweSnTjb6ZbqwwzqZG8cuSwz6dpUeyq9p3CF1eyJJqoWOBCGW2Rtxdh/1GBxj0A+6ulquOQ6VDkWqcunsWMah1Q692fdYxWaVXLR81gKO6vusYoDBFaFlo1vC7SQwRRu30mSNFY+sgZqQpisAYrNKVkCqp5VtQ7DS7lwcFo+zHrkIT7ifdVqzXKf8RuobbaC3B5ySs59SLj73HuoDU8hFjstZZz1kkCj1IP5satvk/AkuL+6PRpxCn6MKbeXoyze6vDyf2gt9Ot1bC/g+0YnkBv8APyc9MA/CtCTh/SGJY9jkkkntzzJ5k8pK8tVnRhmW2Si37LS32J3HcUilWz/L+I3f6SpMxHeNsIwvvKD31O+Xi+220UI6ySlj6kXH3uPdVp4d0OxgdpbJI9+NrMjmTAPPB844zj4Vz7ypn5Vq1vaDngRIfQXbcf3SPdUsMpZWdGSTUYRbezHHjH8l94cQWWlRsw/y7ftGHTmVMhHrycVD6zxLqNraJfTW9qInEZVQ8naeeMgbcYzjmefjUt5Q8m0+TpyM8sNuuPB3Gcfqg1Xf8RN4EitLROQLNIQO4IoRf9ze6tvDMSrIjO62O3KT0YnJx0kWrgjWmvrVLh0CFmYYBJB2nGRnn4+41z3hiBbviCabaCkbyyejK+Yp9e7DVfNCQWWlRk8uzt+0b9LaZD8TVR8g9oStzct1ZljB/eb71qnVxphkWQ6Lsv3Zu+rimXXWdSn7eO0s443ldHkYysyxpGpC5O0ZJLHAxXhdnVoo3ldLDaiM7efN0Ubj+L4V86/pmnTyb7p4zIqhOcxRgAc4IDjHM1T+PtDsVtwmnqJLiSRURY5mkbGCT5u8g8hj21N4fDFnCMJ1tyfdtdP+zWfLvs9/J9qsmp6g13PGi/J4diBckKzMefPJzgvVx1rU51uIrSzSN5XjeVu0dlRUUheZUE5JOKoXkR1S3hSeKaRI5GdSN5CBlAIxluWQSeXpq661a6bdOJLiSB2UbQ3bBTjOcea4yM5rTLioZv8AyQbritJJf57mYv09H1Pbbq//AELL7WX+mvvRtIvZL6K6vkgRYY5FjETuxLvgZO4DHmgitKLgrT3UNFGef0XjlkyPSrB8cqmfJteyS28iTOZGhnlhEjfSdUIwzeJ54z34rpeHyw7ZN0x1Jd9mkuSXUtdKUrskZjFMVmlAYpis0oBWMVmlAYr8z+WW/wC21WfB5RlYh+ooz+8Wr9M1FS6DaOxd7WBmYkljFGSSeeSSMk0BzDh3W7OG2hiNzGCsagjPRjzPxJqT8mjrc6pd3aENHHFHDGw6Hcdxx7VPvq9jhyz/ACS3+yj/AKa2rGwihBEMaRgnJCIqAnxO0DJqadzlHiV4Y8YTc13ZuVjFZpUJYMYrNKUApSlAKUpQClKUApSlAYrg3lsmN1q0Nqn4ixJj8+Rtx+BT3V3nFcg1DgfUW1R9RVYHHbF41eRh5o81M4XkQAp9lay3xeu4LBx+xSweGLk0hjt4x/7jBMD9XNR3lb0ays9Mdo7WBZGMcaOI0Dgkgk7sZztVudSY0fULm4tjdx28cMMvat2cjuzMqnaMFQMbiDTywcMXWoxQxWvZ7Vd3fexXngBcYBz1f31z/DMWWPU1P9TbbN5y5PoQ3kRsezsO0I5yyMf1Vwo+Ib31W+E//wCviCWfqsbSuD6FHZp961ctE0rVbe2jto4LTEabQxlfJPPziNnXJJqF4J4K1PT3kkWO1kaQBfOlYYAOeWE7/wCFVlhXcr7NeqfRdfYzyXRFh4sSf5RZyw27TpDI8jqrohL7Nqc3PcSTVT4v0K+1W/imltjBCqonnyI21QxZj5p5k5OAB3Crrt1f8ms/tpP6Kzt1f8ms/tpP6Kix6/EKKVVGEenvv+zMnBvZGeVy97HTZFHIyFI19ROTj2KffX15KrQQaZEW5b98reonkT+qBULxvwTq9+yGR7baoJCI7qiEnxZcscY5+wVONpmrfJfkqQWijsuxDCaTKjZs3Y2Yzjn66w/DLlixpWtuW5DmuWzY8n3D9tc2nyq6t4pXnlml3SRq7bWchRlhnG0A49NeXGup6fozwyLYxGR95QxpHG6BQBnOM892KumhWIt7eKAf8uONPXtUDPwrnflX4JvdRu0kg7Lso41UB3KktuJY4CnxA9ld+MVFaREbL363GJ20FZO0AbextizA8wTu55we+q1x1ok12kcdnpK2xVyzspgDMMYC+YRy6k+yrrFHqygKLWzAAAH4aTu5f6K+sav+TWf20n9NcudniG3qEdfn+yRKPyZ0O2+QaeiSYzDEzP0xuALtg9/Mn4VIeTK0MWm2+76TqZm8SZWMnP2MB7Ki5OH769xHftDDb5BkjhZ3eUA52M7ABUz1xzNXeNAoCqMAAAAdAB3Vnw3DnTynZ+qT2zE5J9EetKUrqmgpSlAKUpQClKUApSlAKUpQClKUApSlAKUpQClKUApSlAKUpQClKUApSlAKUpQClKUApSlAKUpQClKUApSlAKUpQClKUApSlAKUpQClKUApSlAKUpQClKUApSlAKUpQClKUApSlAKUpQClKUApSlAKUpQClKUApSlAKUpQClKUApSlAKUpQClKUApSlAKUpQClKUApSlAKUpQH/2Q==;" parent="1" vertex="1">
          <mxGeometry x="413.38" y="249.12" width="133.25" height="62.88" as="geometry" />
        </mxCell>
        <mxCell id="VrKKvqY3dBjmQD-Xjk8_-2179" value="" style="shape=image;verticalLabelPosition=bottom;labelBackgroundColor=#ffffff;verticalAlign=top;aspect=fixed;imageAspect=0;image=data:image/svg+xml,PHN2ZyB4bWxuczpjYz0iaHR0cDovL2NyZWF0aXZlY29tbW9ucy5vcmcvbnMjIiB4bWxuczpkYz0iaHR0cDovL3B1cmwub3JnL2RjL2VsZW1lbnRzLzEuMS8iIHhtbG5zOmlua3NjYXBlPSJodHRwOi8vd3d3Lmlua3NjYXBlLm9yZy9uYW1lc3BhY2VzL2lua3NjYXBlIiB4bWxuczpyZGY9Imh0dHA6Ly93d3cudzMub3JnLzE5OTkvMDIvMjItcmRmLXN5bnRheC1ucyMiIHhtbG5zOnNvZGlwb2RpPSJodHRwOi8vc29kaXBvZGkuc291cmNlZm9yZ2UubmV0L0RURC9zb2RpcG9kaS0wLmR0ZCIgeG1sbnM6c3ZnPSJodHRwOi8vd3d3LnczLm9yZy8yMDAwL3N2ZyIgeG1sbnM9Imh0dHA6Ly93d3cudzMub3JnLzIwMDAvc3ZnIiB4bWxuczp4bGluaz0iaHR0cDovL3d3dy53My5vcmcvMTk5OS94bGluayIgdmVyc2lvbj0iMS4xIiBpZD0ic3ZnODU1MTkiIGlua3NjYXBlOnZlcnNpb249IjAuOTIuMyAoMjQwNTU0NiwgMjAxOC0wMy0xMSkiIHNvZGlwb2RpOmRvY25hbWU9Imh0dHAuc3ZnIiB4PSIwcHgiIHk9IjBweCIgdmlld0JveD0iMCAwIDQ4IDQ4IiBzdHlsZT0iZW5hYmxlLWJhY2tncm91bmQ6bmV3IDAgMCA0OCA0ODsiIHhtbDpzcGFjZT0icHJlc2VydmUiPiYjeGE7PHNvZGlwb2RpOm5hbWVkdmlldyBib3JkZXJjb2xvcj0iIzY2NjY2NiIgYm9yZGVyb3BhY2l0eT0iMSIgZml0LW1hcmdpbi1ib3R0b209IjAiIGZpdC1tYXJnaW4tbGVmdD0iMCIgZml0LW1hcmdpbi1yaWdodD0iMCIgZml0LW1hcmdpbi10b3A9IjAiIGdyaWR0b2xlcmFuY2U9IjEwIiBndWlkZXRvbGVyYW5jZT0iMTAiIGlkPSJuYW1lZHZpZXc4NTUyMSIgaW5rc2NhcGU6Y3VycmVudC1sYXllcj0ic3ZnODU1MTkiIGlua3NjYXBlOmN4PSIzMi4xMzUwMjQiIGlua3NjYXBlOmN5PSIzMi4wMDA3NjkiIGlua3NjYXBlOnBhZ2VvcGFjaXR5PSIwIiBpbmtzY2FwZTpwYWdlc2hhZG93PSIyIiBpbmtzY2FwZTp3aW5kb3ctaGVpZ2h0PSIxMDE3IiBpbmtzY2FwZTp3aW5kb3ctbWF4aW1pemVkPSIxIiBpbmtzY2FwZTp3aW5kb3ctd2lkdGg9IjE5MjAiIGlua3NjYXBlOndpbmRvdy14PSItOCIgaW5rc2NhcGU6d2luZG93LXk9Ii04IiBpbmtzY2FwZTp6b29tPSIxMy4xMzYzNjQiIG9iamVjdHRvbGVyYW5jZT0iMTAiIHBhZ2Vjb2xvcj0iI2ZmZmZmZiIgc2hvd2dyaWQ9ImZhbHNlIj4mI3hhOwk8L3NvZGlwb2RpOm5hbWVkdmlldz4mI3hhOzxnIGlkPSJnODU1MTciIHRyYW5zZm9ybT0idHJhbnNsYXRlKC0wLjc5NSwtMC43NSkiPiYjeGE7CTx0aXRsZSBpZD0idGl0bGU4NTQ0MCI+UGFnZS0xPC90aXRsZT4mI3hhOwk8ZyBpZD0iZ3JvdXA1MjQ5LTEiIHRyYW5zZm9ybT0idHJhbnNsYXRlKDAuNzk1LC0wLjc1KSI+JiN4YTsJCTx0aXRsZSBpZD0idGl0bGU4NTQ0MiI+SFRUUDwvdGl0bGU+JiN4YTsJCTxnIGlkPSJzaGFwZTUyNTAtMiI+JiN4YTsJCQk8dGl0bGUgaWQ9InRpdGxlODU0NDQiPmNpcmNsZTE1MDU1PC90aXRsZT4mI3hhOwkJCTxjaXJjbGUgaWQ9ImVsbGlwc2U4NTQ0NiIgc3R5bGU9ImZpbGw6I0ZGRkZGRjsiIGN4PSIyNCIgY3k9IjI1LjUiIHI9IjI0Ii8+JiN4YTsJCTwvZz4mI3hhOwkJPGcgaWQ9InNoYXBlNTI1MS00IiB0cmFuc2Zvcm09InRyYW5zbGF0ZSgxLjQ5NzE5LC0xLjMxMjUpIj4mI3hhOwkJCTx0aXRsZSBpZD0idGl0bGU4NTQ0OSI+cGF0aDE1MDU3PC90aXRsZT4mI3hhOwkJCTxwYXRoIGlkPSJwYXRoODU0NTEiIGlua3NjYXBlOmNvbm5lY3Rvci1jdXJ2YXR1cmU9IjAiIHN0eWxlPSJmaWxsOiNGRkZGRkY7IiBkPSJNNDUuMzgsMjYuNjNjMCwwLjA2LDAsMC4xMiwwLDAuMTggICAgIGMwLDEyLjUzLTEwLjE2LDIyLjY5LTIyLjY5LDIyLjY5UzAsMzkuMzQsMCwyNi44MWMwLTAuMDYsMC0wLjEyLDAtMC4xOEMwLDE0LjEsMTAuMTYsMy45NCwyMi42OSwzLjk0UzQ1LjM4LDE0LjEsNDUuMzgsMjYuNjN6Ii8+JiN4YTsJCTwvZz4mI3hhOwkJPGcgaWQ9InNoYXBlNTI1Mi02IiB0cmFuc2Zvcm09InRyYW5zbGF0ZSg0LjE2MjUsLTM1LjI1KSI+JiN4YTsJCQk8dGl0bGUgaWQ9InRpdGxlODU0NTQiPnBhdGgxNTA1OTwvdGl0bGU+JiN4YTsJCQk8cGF0aCBpZD0icGF0aDg1NDU2IiBpbmtzY2FwZTpjb25uZWN0b3ItY3VydmF0dXJlPSIwIiBzdHlsZT0iZmlsbDpub25lOyIgZD0iTTAsNDcuN2MzLjI1LDEuMDUsMTAuODQsMS44LDE5Ljc1LDEuOCAgICAgYzguNjUsMCwxNi4xMS0wLjcsMTkuNS0xLjcyTDAsNDcuN3oiLz4mI3hhOwkJCSYjeGE7CQkJCTxwYXRoIGlkPSJwYXRoODU0NTgiIGlua3NjYXBlOmNvbm5lY3Rvci1jdXJ2YXR1cmU9IjAiIHN0eWxlPSJmaWxsOm5vbmU7c3Ryb2tlOiNEM0QzRDM7c3Ryb2tlLXdpZHRoOjEuNTtzdHJva2UtbWl0ZXJsaW1pdDozOyIgZD0iICAgICBNMCw0Ny43YzMuMjUsMS4wNSwxMC44NCwxLjgsMTkuNzUsMS44YzguNjUsMCwxNi4xMS0wLjcsMTkuNS0xLjcyIi8+JiN4YTsJCTwvZz4mI3hhOwkJPGcgaWQ9InNoYXBlNTI1My05IiB0cmFuc2Zvcm09InRyYW5zbGF0ZSgxMy40NCwtMjIuNzcpIj4mI3hhOwkJCTx0aXRsZSBpZD0idGl0bGU4NTQ2MSI+cGF0aDE1MDYxPC90aXRsZT4mI3hhOwkJCTxwYXRoIGlkPSJwYXRoODU0NjMiIGlua3NjYXBlOmNvbm5lY3Rvci1jdXJ2YXR1cmU9IjAiIHN0eWxlPSJmaWxsOiNEM0QzRDM7IiBkPSJNMTAuNTYsMjYuMjVjNC4yMSwwLDguODgsOC45LDkuMDUsMjEuNzVIMS41MSAgICAgQzEuNjgsMzUuMTUsNi4zNiwyNi4yNSwxMC41NiwyNi4yNXogTTEwLjU2LDI0Ljc1QzQuNzIsMjQuNzUsMCwzNS41LDAsNDguNzVjMCwwLjI2LDAsMC41LDAsMC43NWgyMS4xMWMwLTAuMjUsMC0wLjQ5LDAtMC43NSAgICAgYzAtMTMuMjUtNC43Mi0yNC0xMC41Ni0yNEgxMC41NnoiLz4mI3hhOwkJPC9nPiYjeGE7CQk8ZyBpZD0ic2hhcGU1MjU0LTExIiB0cmFuc2Zvcm09InRyYW5zbGF0ZSgxLjEzMjUsLTEuMTI1KSI+JiN4YTsJCQk8dGl0bGUgaWQ9InRpdGxlODU0NjYiPnBhdGgxNTA2MzwvdGl0bGU+JiN4YTsJCQk8cGF0aCBpZD0icGF0aDg1NDY4IiBpbmtzY2FwZTpjb25uZWN0b3ItY3VydmF0dXJlPSIwIiBzdHlsZT0iZmlsbDojNTVEMkY2OyIgZD0iTTIzLjA1LDQ5LjVDMTAuNCw0OS40NywwLjEzLDM5LjI3LDAsMjYuNjMgICAgIHYtMC4zOGg0Ni4xMnYwLjM4QzQ1Ljk5LDM5LjI4LDM1LjcsNDkuNDgsMjMuMDUsNDkuNXoiLz4mI3hhOwkJPC9nPiYjeGE7CQk8ZyBpZD0ic2hhcGU1MjU1LTEzIiB0cmFuc2Zvcm09InRyYW5zbGF0ZSgxLjUsLTcuMDI5NDQpIj4mI3hhOwkJCTx0aXRsZSBpZD0idGl0bGU4NTQ3MSI+cGF0aDE1MDY1PC90aXRsZT4mI3hhOwkJCTxwYXRoIGlkPSJwYXRoODU0NzMiIGlua3NjYXBlOmNvbm5lY3Rvci1jdXJ2YXR1cmU9IjAiIHN0eWxlPSJmaWxsOiM1NTZBOEE7IiBkPSJNMjIuNSwxMC4wM2MxMi40MywwLDIyLjUsMTAuMDcsMjIuNSwyMi41ICAgICBzLTEwLjA3LDIyLjUtMjIuNSwyMi41UzAsNDQuOTYsMCwzMi41M2wwLDBDMCwyMC4xLDEwLjA3LDEwLjAzLDIyLjUsMTAuMDN6IE0yMi41LDguNTNjLTEzLjI1LDAtMjQsMTAuNzUtMjQsMjRzMTAuNzUsMjQsMjQsMjQgICAgIHMyNC0xMC43NSwyNC0yNGwwLDBDNDYuNSwxOS4yOCwzNS43NSw4LjUzLDIyLjUsOC41M3oiLz4mI3hhOwkJPC9nPiYjeGE7CQk8ZyBpZD0ic2hhcGU1MjU2LTE1IiB0cmFuc2Zvcm09InRyYW5zbGF0ZSg0LjE2MjUsLTExLjc2KSI+JiN4YTsJCQk8dGl0bGUgaWQ9InRpdGxlODU0NzYiPnBhdGgxNTA2NzwvdGl0bGU+JiN4YTsJCQk8cGF0aCBpZD0icGF0aDg1NDc4IiBpbmtzY2FwZTpjb25uZWN0b3ItY3VydmF0dXJlPSIwIiBzdHlsZT0iZmlsbDpub25lOyIgZD0iTTAsNDkuNWMzLjI1LTEuMDYsMTAuODctMS44LDE5Ljc1LTEuOCAgICAgYzguNjUsMCwxNi4xMSwwLjcxLDE5LjUsMS43M0wwLDQ5LjV6Ii8+JiN4YTsJCQkmI3hhOwkJCQk8cGF0aCBpZD0icGF0aDg1NDgwIiBpbmtzY2FwZTpjb25uZWN0b3ItY3VydmF0dXJlPSIwIiBzdHlsZT0iZmlsbDpub25lO3N0cm9rZTojNTU2QThBO3N0cm9rZS13aWR0aDoxLjU7c3Ryb2tlLW1pdGVybGltaXQ6MzsiIGQ9IiAgICAgTTAsNDkuNWMzLjI1LTEuMDYsMTAuODctMS44LDE5Ljc1LTEuOGM4LjY1LDAsMTYuMTEsMC43MSwxOS41LDEuNzMiLz4mI3hhOwkJPC9nPiYjeGE7CQk8ZyBpZD0ic2hhcGU1MjU3LTE4IiB0cmFuc2Zvcm09InRyYW5zbGF0ZSgwLjcwNSwtMjQpIj4mI3hhOwkJCTx0aXRsZSBpZD0idGl0bGU4NTQ4MyI+bGluZTE1MDY5PC90aXRsZT4mI3hhOwkJCSYjeGE7CQkJCTxwYXRoIGlkPSJwYXRoODU0ODUiIGlua3NjYXBlOmNvbm5lY3Rvci1jdXJ2YXR1cmU9IjAiIHN0eWxlPSJmaWxsOm5vbmU7c3Ryb2tlOiM1NTZBOEE7c3Ryb2tlLXdpZHRoOjEuNTtzdHJva2UtbWl0ZXJsaW1pdDozOyIgZD0iICAgICBNMCw0OS41aDQ2Ljc5Ii8+JiN4YTsJCTwvZz4mI3hhOwkJPGcgaWQ9Imdyb3VwNTI1OC0yMSIgdHJhbnNmb3JtPSJ0cmFuc2xhdGUoOC42Nzc1LC0yNi43NTI1KSI+JiN4YTsJCQk8dGl0bGUgaWQ9InRpdGxlODU0ODgiPmcxNTA3OTwvdGl0bGU+JiN4YTsJCQk8ZyBpZD0ic2hhcGU1MjU5LTIyIj4mI3hhOwkJCQk8dGl0bGUgaWQ9InRpdGxlODU0OTAiPnBhdGgxNTA3MTwvdGl0bGU+JiN4YTsJCQkJPHBhdGggaWQ9InBhdGg4NTQ5MiIgaW5rc2NhcGU6Y29ubmVjdG9yLWN1cnZhdHVyZT0iMCIgc3R5bGU9ImZpbGw6IzU1NkE4QTsiIGQ9Ik03LjU5LDQ5LjQ5SDYuMDFWNDUuNEgxLjU3djQuMUgwdi05LjQ2aDEuNTcgICAgICBWNDRoNC40NHYtMy45N2gxLjU4VjQ5LjQ5eiIvPiYjeGE7CQkJPC9nPiYjeGE7CQkJPGcgaWQ9InNoYXBlNTI2MC0yNCIgdHJhbnNmb3JtPSJ0cmFuc2xhdGUoOSwtMC4wMDc1KSI+JiN4YTsJCQkJPHRpdGxlIGlkPSJ0aXRsZTg1NDk1Ij5wYXRoMTUwNzM8L3RpdGxlPiYjeGE7CQkJCTxwYXRoIGlkPSJwYXRoODU0OTciIGlua3NjYXBlOmNvbm5lY3Rvci1jdXJ2YXR1cmU9IjAiIHN0eWxlPSJmaWxsOiM1NTZBOEE7IiBkPSJNNi45OSw0MS4zOUg0LjI3djguMTFIMi43MXYtOC4xMUgwdi0xLjM0aDcgICAgICBMNi45OSw0MS4zOXoiLz4mI3hhOwkJCTwvZz4mI3hhOwkJCTxnIGlkPSJzaGFwZTUyNjEtMjYiIHRyYW5zZm9ybT0idHJhbnNsYXRlKDE2LjcxLC0wLjAwNzUpIj4mI3hhOwkJCQk8dGl0bGUgaWQ9InRpdGxlODU1MDAiPnBhdGgxNTA3NTwvdGl0bGU+JiN4YTsJCQkJPHBhdGggaWQ9InBhdGg4NTUwMiIgaW5rc2NhcGU6Y29ubmVjdG9yLWN1cnZhdHVyZT0iMCIgc3R5bGU9ImZpbGw6IzU1NkE4QTsiIGQ9Ik02Ljk5LDQxLjM5SDQuMjd2OC4xMUgyLjcxdi04LjExSDB2LTEuMzRoNyAgICAgIEw2Ljk5LDQxLjM5eiIvPiYjeGE7CQkJPC9nPiYjeGE7CQkJPGcgaWQ9InNoYXBlNTI2Mi0yOCIgdHJhbnNmb3JtPSJ0cmFuc2xhdGUoMjUuMDcyNSwtMC4wMDc1KSI+JiN4YTsJCQkJPHRpdGxlIGlkPSJ0aXRsZTg1NTA1Ij5wYXRoMTUwNzc8L3RpdGxlPiYjeGE7CQkJCTxwYXRoIGlkPSJwYXRoODU1MDciIGlua3NjYXBlOmNvbm5lY3Rvci1jdXJ2YXR1cmU9IjAiIHN0eWxlPSJmaWxsOiM1NTZBOEE7IiBkPSJNMS41Nyw0Ni4wN3YzLjQzSDB2LTkuNDVoMi44NiAgICAgIGMwLjkxLTAuMDYsMS44LDAuMjEsMi41MywwLjc1YzAuNjEsMC41NCwwLjk1LDEuMzMsMC45LDIuMTRjMC4wMywwLjg1LTAuMzIsMS42Ny0wLjk0LDIuMjVjLTAuNjksMC42MS0xLjYsMC45My0yLjUyLDAuODhIMS41NyAgICAgIHogTTEuNTcsNDEuMzR2My40MmgxLjAyYzAuNTQsMC4wMywxLjA3LTAuMTMsMS41LTAuNDZjMC4zNi0wLjM0LDAuNTUtMC44MiwwLjUyLTEuMzJjMC0xLjExLTAuNjQtMS42Ny0xLjkzLTEuNjdMMS41Nyw0MS4zNHoiLz4mI3hhOwkJCTwvZz4mI3hhOwkJPC9nPiYjeGE7CQk8ZyBpZD0ic2hhcGU1MjYzLTMwIiB0cmFuc2Zvcm09InRyYW5zbGF0ZSgxMy40NDc1KSI+JiN4YTsJCQk8dGl0bGUgaWQ9InRpdGxlODU1MTEiPnBhdGgxNTA4MTwvdGl0bGU+JiN4YTsJCQk8cGF0aCBpZD0icGF0aDg1NTEzIiBpbmtzY2FwZTpjb25uZWN0b3ItY3VydmF0dXJlPSIwIiBzdHlsZT0iZmlsbDojNTU2QThBOyIgZD0iTTE5LjYsMjYuMjVDMTkuNDMsMzkuMTEsMTQuNzYsNDgsMTAuNTUsNDggICAgIFMxLjY3LDM5LjExLDEuNSwyNi4yNUgxOS42eiBNMjEuMSwyNC43NUgwYzAsMC4yNSwwLDAuNSwwLDAuNzVjMCwxMy4yNSw0LjcyLDI0LDEwLjU2LDI0YzUuODMsMCwxMC41NS0xMC43NSwxMC41NS0yNCAgICAgYzAtMC4yNSwwLTAuNSwwLTAuNzVIMjEuMXoiLz4mI3hhOwkJPC9nPiYjeGE7CTwvZz4mI3hhOzwvZz4mI3hhOzwvc3ZnPg==;fontColor=#030303;strokeColor=#0A0A0A;" parent="1" vertex="1">
          <mxGeometry x="78" y="386.26" width="87.74" height="87.74" as="geometry" />
        </mxCell>
        <mxCell id="VrKKvqY3dBjmQD-Xjk8_-2185" value="" style="shape=image;verticalLabelPosition=bottom;labelBackgroundColor=default;verticalAlign=top;aspect=fixed;imageAspect=0;image=data:image/png,iVBORw0KGgoAAAANSUhEUgAABFIAAADGCAYAAADxAqRMAAAD7WlUWHRYTUw6Y29tLmFkb2JlLnhtcAAAAAAAPD94cGFja2V0IGJlZ2luPSLvu78iIGlkPSJXNU0wTXBDZWhpSHpyZVN6TlRjemtjOWQiPz4KPHg6eG1wbWV0YSB4bWxuczp4PSJhZG9iZTpuczptZXRhLyIgeDp4bXB0az0iQWRvYmUgWE1QIENvcmUgNS42LWMxNDggNzkuMTY0MDUwLCAyMDE5LzEwLzAxLTE4OjAzOjE2ICAgICAgICAiPgogPHJkZjpSREYgeG1sbnM6cmRmPSJodHRwOi8vd3d3LnczLm9yZy8xOTk5LzAyLzIyLXJkZi1zeW50YXgtbnMjIj4KICA8cmRmOkRlc2NyaXB0aW9uIHJkZjphYm91dD0iIgogICAgeG1sbnM6ZGFtPSJodHRwOi8vd3d3LmRheS5jb20vZGFtLzEuMCIKICAgIHhtbG5zOnRpZmY9Imh0dHA6Ly9ucy5hZG9iZS5jb20vdGlmZi8xLjAvIgogICAgeG1sbnM6ZGM9Imh0dHA6Ly9wdXJsLm9yZy9kYy9lbGVtZW50cy8xLjEvIgogICBkYW06UGh5c2ljYWxoZWlnaHRpbmluY2hlcz0iLTEuMCIKICAgZGFtOlBoeXNpY2Fsd2lkdGhpbmluY2hlcz0iLTEuMCIKICAgZGFtOkZpbGVmb3JtYXQ9IlBORyIKICAgZGFtOlByb2dyZXNzaXZlPSJubyIKICAgZGFtOmV4dHJhY3RlZD0iMjAyMS0wMS0xMVQxODo1ODowMi45MjVaIgogICBkYW06Qml0c3BlcnBpeGVsPSIzMiIKICAgZGFtOk1JTUV0eXBlPSJpbWFnZS9wbmciCiAgIGRhbTpQaHlzaWNhbHdpZHRoaW5kcGk9Ii0xIgogICBkYW06UGh5c2ljYWxoZWlnaHRpbmRwaT0iLTEiCiAgIGRhbTpOdW1iZXJvZmltYWdlcz0iMSIKICAgZGFtOk51bWJlcm9mdGV4dHVhbGNvbW1lbnRzPSIwIgogICBkYW06c2hhMT0iM2EwMjlhNDM3OWEwY2I3OTY5MjUwMjk5OGQ4ZjU1NzU1MTVhYTFmYyIKICAgZGFtOnNpemU9IjEwNzY5IgogICB0aWZmOkltYWdlTGVuZ3RoPSIxOTgiCiAgIHRpZmY6SW1hZ2VXaWR0aD0iMTEwNiIKICAgZGM6Zm9ybWF0PSJpbWFnZS9wbmciCiAgIGRjOm1vZGlmaWVkPSIyMDIxLTAxLTExVDE4OjU4OjA1LjkxMFoiLz4KIDwvcmRmOlJERj4KPC94OnhtcG1ldGE+Cjw/eHBhY2tldCBlbmQ9InIiPz4cXqPOAAAp2ElEQVR42u3d7XXkOpal4fRjXGlHxhY60BU/2g86Qg+qZtEKesDsCVG6oZBCoSC+CIDPuxZXdtfNlEgCBM7Z2Dj48wd4lf+Z/8/bBQAAAAAAgCdc/t///fOv/wxeBAAAAAAAwDOuAsq//rP8+e9//5eXAQAAAAAA8BObiPL3/1+TbT0AAAAAAACPuIom//rP+C6i/H3b2gMAAAAAAIAvXLfwfBZRuFEAAAAAAAAesBWVXT6JKNwoAAAAAAAA3/goKvtZROFGAQAAAAAA+MRWD2X4IqB8XI48BgAAAAAAeONrUdn7a+ZGAQAAAAAAuLKJKNMPIgo3CgAAAAAAwBtbUdn5iYgyv53eAwAAAAAAcGp+rofCjQIAAAAAAPAPj0/m4UYBAAAAAAD4h+dFZdO5Ua6/57ptCAAAAAAAoEn2iShLlBvl+m85WgAAAAAAQJNswsb0oojy901wieEm2IxePgAAAAAAaIffT+b5fsVsy9mcL0sSZwsAAAAAAEARNkHjlaKyqd0oX08DmjQGAAAAAACol01EuewUUOLdKFe+12FZFJ4FAAAAAAB1sokoU5CIcv13138fyraNaHl4lHLMzwUAAAAAAEjO/qKyqd0oQ5bjlAEAAAAAAJLyceRwqIgS6xr53QnjOGQAAAAAAFABYUVl0zpGtm09eQvZAgAAAAAARPF8O82ja81Sw+TV+1B4FgAAAAAAFGfbSjNGulDSuFG2e5mLbCECAAAAAADYxVYPJZWIskTXLnltW4/CswAAAAAAoDDhJ/Os2eqW7Bd1uFIAAAAAAEBmNufHksiJksaNsm9bD1cKAAAAAAAoQJqTedK7UfZv67mJOArPAgAAAACApGyOj0sGEeVvtBvlSlytltEWHwAAAAAAkIbweiivXFO0iBG+rcdxyAAAAAAAICF5RZQ0Asa23eh4QQcAAAAAAJyYre7InE1ESbWlJp3Qo/AsAAAAAADYybZVZshSDyW1G2VzzKS6zzlJvRYAAAAAAHASNhFlzCqgpNxKk2ZbT9oThAAAAAAAwAkoJ6KkcaOkKDLrOGQAAAAAALCb/PVQ0rtRtnuu9/4AAAAAAECHbILEK3VG1h/+72OKuuZzz3ClAAAAAACAB5QoKvtVjEnh9sizree+8CxXCgAAAAAAeONWD6WkiJKumGu+bT2OQwYAAAAAAJ8oWVT265aZVMcLl7l/rhQAAAAAAE7NVci4FlMtL6Kkc3jk39bjOGQAAAAAAE5P2ZN5vrs70rlRhqIuGoVnAQAAAAA4GWXFh9xulNKOGschAwAAAABwCjbh4WgRJV1tlNePalZ4FgAAAAAA7OC4orL56owcJwpxpQAAAAAA0C3HFpW9v1LVGClbZJYrBQAAAACAU7Btf6lDREnp5DhuW4/CswAAAAAAdMnxYkMeN8qV3rYpAQAAAACAg7gVlc0toqyHuFGO39aTRxwCAAAAAACF2USGSzUulByCw+a0+dvddiUAAAAAAFCQTUSZqhNRru6RlGJDHdt6FJ4FAAAAAKBZ6ioqm09oqGlbTy6hCAAAAAAAZKSurS653ShDpc+p8CwAAAAAAFVTrqhsPdte6nXdLH/++9//pVMCAAAAAFCviDJWLKCkFxfqdt4oPAsAAAAAABEl6sjjtNtd6heOHIcMAAAAAEBV1F1UNp8bpd4TibhSAAAAAACoWERZGhAT0tdGSb+tZ03guHEcMgAAAAAAVVJ/Udm8hVdb2Nbz+aQihWcBAAAAADiANk7myVsbZXsHc0PPf70uOi8AAAAAAOVFlLExEWVJXnC1/tN6yrwHAAAAAADwVESZGhQQxqTFVuPfw1r4pKJ87wIAAAAAAPzAtp3nb3NXahfGtdZIW44cxyEDAAAAAFCUTTyYGxQO0h/926qg9LnwLFcKAAAAAAAZaeuEmnzui3a3N+UtvgsAAAAAAN5pdytLejfK9i5y3OuasZ5KmeOgAQAAAAA4PW07MIbk76PebT0rVwoAAAAAAEfT5jG/m7CQ2nHRz7YehWcBAAAAAEjOJhzM3CjNi0rPtz8BAAAAAIAEtHs6TZ76H/W8j5UrBQAAdMt1MW9bwLrGXpcH1/D236+XkwgBANXQ7nHHedwobbtzHIcM9DIuf70AoC/hZHyPt5Zdccx2DV4kAOBYNrW/PvfEK1eO5CLftp61W/EJQMrxZ3wwXixv/ztXGYBW2RbuLokWqyYLQwCAo4P2Vt0VeU6iKVtkdlV4FsC7E258aTvj9e9JIAC0N74tSeu+GQcBAAdObFOztVFyiAHbasnS6bYexyEDbYsokggAbbHVPZmzFNA3BgIADpzc2hUCckyg9b+TtWohCkDIuDMSRAF0RR4XCiEFAHAwxxWYXZOIBDlEgLocOmuR45AFIT0n5z+dfhB29VjsdPvm072nkHEpdiwmiAKoc2ydxDBijKTzJQBUNAC26kbJM3luCc3fk10Kzwpiz+t+SP/NXw4Yi7lSAJxNRCGkHN/Gs/YDcD62ArNLs66KXCp22+KS45CRO5Dtr6+Eb6lJKaSM0e0CAP2OqxLx+tp4SLLFvEenKwCT3OncKGVWUFaFZ9GwkNKXg2l7RwshBQCqSrAJKefJI7iiATRE28cd53OjlHPp1CiwKDxLSDlf4Jon4CekADgn5U89JKS0385c0QBOn1ytzW9Dadels3KloOC3/rcLK26+93NEjZRJhwdwOOniqPn9Zz0qUjp+qs1BSDmmnYcmFkgBoOrBr7wQkMcCmKZoVuvOFa4UQsp5RLd8zrz9Qkrs6p7vFsDRxJ8EubzNWdef85s4cv3v2+8bkgsp159rTP0tl5jFFADOmFjNiqIWTaq8Y/QopLTfT/I50C6B9zOxtgNoeEwdIkWUY2plfBZlbjGyxL5svCz2BHDaxKH9Y3rrezfrgT9H4S9CSt/9JH7lNL2QEnZPTjwA0Pp8U15E2e53+LJNiEPiyHiZCwhAtRzruFiTbDvJlTCUL45W+yU5E9j27YTIu8XxEjkWTS+v4PlOAdRAXByVX7S4d51ML9wrIeXnuGLOFlMAwAkTqtbdKENntU7sV0WZ777FRD7/e7kkuL/hSaA/v/0ONmgAtRC+WJd34WYbT8eA5F8MlLadLeIBaJQ6C8zWM7i2LzLlEWjYLAkpPQab26rk32qFlM/ttwWtt9Mqrv8/AQVAP3Fm3jkkfLwnpBwTL9taDuB0yVRIIr9WsYUgf1LV8qWIpW+/vwJx+eshXXQ+ACdLsMcqE2dCSup3uYg7AZxpchuaT+hzOiPaeD9rIufJypVCSDn1ClKZQJCQAoCQUkOMQUg5Ml5eg+JO23sAnChpaNcVUdatszZaN8WRdOcSUkICn3YCzn2B4Br4TRJSABBSaqiJQUg5Kp5YI+ZQ7x5AsxPbedwox55kpNAvehFS2lhBCg8ECSkA8DzenIOElNwLNYSU497j9d+EvX8LeAAOZhMJuFF6F5pKuVJYLQkprYtt+4TTlZACAFmFlJWQ0kz7jkEi2RaHLBbwAPSeQJ3LjbK9o5lIIqgwDiQREOpfQdr3Lqb3AHwmpABAFiGFI6WdWGLevRAaLsJ4/wAOpM4tK2tVbhTbevYHPArPnkNI2b6NsSrhM00wPe8K4sLFVkIKAEIKIaWXth2iHCVh/37hhAbQSvJ0LjfKNrBPxBHH0hkLHggp4YFPvYHn3ue5jj+EFAAgpGjbMUoECT/4wvYeAJUnDHW4T8puEwi37LtMbP0LKdd/Fxb41LmCtP89LJ/egeOPASCPkKJGSu2ExQLTg/4xBeUCAFCMPgrM5k/W6xCb2i08y5XSs5ByO4EnLDCuT2jbH0iPkQE4IQUAIYUjpYd2HZLEAaHbe2wpB1BwwJsk6i+9J6f1cKUQUn5aIbwJKUMXQtv+dzAQUgCAkKJdd7frY2dq+PYe7QCgAP0UT82bpIdPqi7HIZ9BSLk5UkIDn5pWkPY/w00ICh9TCSkfx15e3/9P18ffafHZfnqeo97zs3f9+e+crW+19sx72pOQQkipM6+YnvSRiQsap4qDjowTWp1LmkqY6qufUsKNYluP45CNC68IKdv30vaxhfu/9yGBOH05XT/b3tXlvb9M70nV/ETEWt//+/T+by5v775mgfb2jNODeWx5f54xq5C4JYXDznc9N/euX+9fj5PzZ89cS+B4q8M0fOpXYc/2URy7PSFFjZSaCZv/h+Txt+09aIVtvPmYq77Oy7c44fotpB77fp4rl1/mktsceVphpR9xYPCunKyEioSUMDGhjqKz+0/dWRI8e7iQso1N8+6r9Hd4nwBOGepy3QSJVyb1rZ3HgHf32ilkWz+YD1lBvQVG4y9iSdiR9tvPrEtguBeM8vav0uPU9fdt7TllaM8PcSWdSLZvTFoi7jv3tUR8HyHX2En8MCed+8O390yZn3Ms1A9zXt/ns9vBGnX33+397//e9o5zm1iwf+x4Jcba3vW4q3+niN2+xwjp5pHTiCrhR3TWd1pPiaDmNmgSQhyHTEh5ViMlbnw5vo7OfiFkTCS6xggpddcsypfcPpvUn0/o4Y7M+YWfO/45wop+W9Wai47nRwdPt4CwVP9a3n5f7mc+6rliA/V+toxz7JZp++mFOaSu7T1tOfr3vaNW3FihOVmYkJJ+0XiLi8pug9/67ZA5RpjPIaj0IwqU+3D7GTgVnkVeR0p4gj9XYDWfoia1VoSU3I6U+wn7mFPhngVMOYSU20pe2YLpIataOYKn0ltFbi6N5ZDnzbWIc+xzfQgqU/DzcfCeV0gJG1OHF7+JemJNQgohJTTGil2YD4ndyggojwWVLgm3ydXmUCl/xFlcoOxSePYcjpSYcebIrV8xRWY5Uh4lgseOM3mElMf1GbZnXqLmvb0ixM2BUtN8PmUf2+twiKYXfW+CWF3J/f7Eg5ByRiElbM5/rXBwzPaeHOJuP0LKSkgpKKSk6Dd7Y+StPaem5pAuV5ttEfkaMBNTuFIIKb9NTq0VnY0pMsuRUt8WyFKOlDQC+77EvO55aMk2vtezmJG2pk2ozbuk22hf3xTjnE1ICZuLxh0/v0zizJFCSMkhpKSKj/aMxfXMKx0tnvc0wR25ci1QSBNsc6X0LaS0VHQ2tsjs2R0pNbr1Sggp6QLqeWeR3DYSw5SLHXXNu2lOjmmnPZeXxyiOlPMJKeHj4NDcXEdIIaSU3fa9P/etc17pQEzpzY3SpvruUnj2PEJKS0VnY4vMntmRUutqegkhJV2w8ruQ0uYcnmaMr2/xIlVx4LmpxY9XkiWx0fmElLDke983FB5PzFmOjO0jnxoStSUh5VmMlbKkxm+xW919s3ExpY7JbS2myJVJOJ3k4zhkQsqjGilx4858wPg4JRF7zuZIqXlLQu4aKWnrja2ZThlqX0yp0wEal5y1XW9tbLC9CCn1JbVTod+TPs7sQ0h5PC4TUtILKSn7yrO+3Ea/bFRMCQ/41u4CGGKK9kQZR0rM2FNSYEtRZPaMjpS66zrkd6SkHft/7lN9BO1jxHiUWnBY3n/m52spNm/VX/A/rgYOR8q5hJTQbzRkDgoX6cYq4qQWkllCSlohJfV4mOs0oJ/nyen9SnkCY4O7EdK93DXif+uzSKljkRWeJaSsTyen2ovOpigyezZHSvwpNXsT3c/X8UJK+mT4cWKeT6z/6R3nPHZ3OCh2+Xiu4a3drtf1vX6048ef12vr18OnwDGtkJJHGPrtm1my/L6fAnpCyrmElLD2DquFFv79pK291nbc/1wIJaSkFlKmIkJKmrny8Tz5eb68nS43nyfvyxvwlt7uU6d7IV9wdB5XisKzfTpSwleRyhSdTVVk9kyOlDwr6tPbO7je18ek/VN7bb9/eA9w5kOElPTixuO5Le3vuX/Hz97N7WjlMWFbL7v6XXw/m9/6SWjMcP1329j1KGjcH4ukT77Gtzb6CHiPaM+fjwKfX7yWTGLrT9e64++Wvq9WhZSyCyXhY+KQ4bmng658gh0hJZ2QEv4u98Vu8eL1tDsmvJ02Fz5WNpP39bX1pF4Fq37Bqvbr8gd9CinbOFRn0dlURWbP4khJmwxuxSt/SwR/u5/bCslSREh57ejhj4Rq/Ceg+nzdOx8eJ+Zpak0sb78j5h3fkvA5iZjz6n3ExS5jhhXoz0HjfiEljVMj7pt59r2kSp4euX1++jOsT60v/eyYP8O/vWnX83/+s8Utzkds3Y1pm9SxUukrTuh4bfwlpKQRUl4Xvb47Jr/HCTcx/+u3E7/gMBxY76sB8bivol/119JgaS23WonWhJTh8MDn8X1NSQPA3h0p6YT5MflqxC3hX7IWm/3dRTntCk4+7vv7scpz9JyZUozc7nMqsiAS9/xj5vFx3O2iTOPimpLOkVt8GN+eMd9x6DaN3LFgK8lkmzFvXCxfy/ae4+KzMasDgJCSSkhZXxDFX48Ttra/3M0BsQtbqeaTmPm66m+yv+0mYyMTi+KzMW2s8GyLQsr662BYY9HZlEVmWxNSQhLsdA6JvE6jj4Q/j5Dyu1sg1CmQdh6ZsgQoabY1/f4dhfe1Mgsuex0hKez4OZ7r5k45pnAgIaV1IWU+5B3Vsr2nrcXaoau+X7+Qkn9+jukPqWPrcGfK2OsHV59boRUlWfFZxyGfT0h5bXIKm/guFU3EQ8Zxt25HSppxbSo2jv9mlU8/TqcTiOLdC/nfc3zyPVQjEOYmfttv3gWGNN/CENiPCCmtEtqvU8R4tQut9Y0jY3d9v10hJc14HmeWGDL20frG84MCsVqKy7Y5ORFTTnYs1umFlPWlySlskJ0zrqzPycXcXh0pKYqZ1SSGp6/1ki4wiRMppoJFmqdsrpTQ/lbjgkvceyozH8a3Z1hyEFojhZBSQ78eDxMyYpLIFhfr4pLmfe+ckJJTSBkTPn/ZWDPvfDf0MsDlOMJ4Pa1LIa4Aj+OQ0VaC+erkVEvR2dRFZlsTUvaOqbFJc20JblohJXUdkvBFkJLvOXaOe9YHSwXJZd5RG9/NEX2PI6XlOGFuNJFsr41i6qLsnesJKbmElHSieOypgzkJc05V9k0eV2B2zfRz252Y6nYG2cqFI4SUOorO7n/GIePz1e1IiZ1TahTC0wkpaR0DJfbAp/2Ohqh3lzZIXqubN+IWtYbu75eQ0iahc0L6Ysn9b+8JH2PDnJKElBxCStqcJrzvD4XaZm4358u/pWQtnlC3XjPDST4KzxJSvk7S86HjQI4is60JKXveZ2vJYMm5Mv0Ru3NTyUGue+6hmOT2bpam5r84l9FMSDmJkFLLanhtNSLy9MOlaF8kpOQQUoYuv7+UbVNNrt9f0t7+pLQFU8QUhWd7FlL2rQSHTUzjgYP8UGAMrtOREhfI1bvyl0ZISTs/xRUTPC4xyOGi6cG2H7OSfOTcF544LAFJihoprVHT6Rzhgmv97RQ3R4XPvYSU1EJK2jiohm11r8UyDX6T7R53vHafSKc5MlLhWdQ7ee+ZnMISxqOK1C07RaK+HClx23qG7vp5TitqeN85VrCKiz0uiftdPS7W8Dl/OvS+48TTvUWsOVJao1RdrrztVP/28ZJ1UQgpOYWUoYrvr/56W1O7g5skupXAnSsFtfbTNWBymg7pC/vHybHQOFynIyV8zKp7/D7qlJI87/r45C11P2mpSGt6cWmooD3nIn2RkHKWODaP2Bs3jtcr9B9ZK4uQklJIybHgMla/2BI2/x3sYI4LOiTQZdvJST49FwY7a6C0f3I6puhsriKzrQkpr4yvOZwG/QgpQ4a5YWl2rozZxvJo7EjhGLre01FzR+sr5TFumj3vnJDSYgxbl2gR4+Sr9x0vhy1gEFJSCilp30n4vFhWNCyVR1Qy6dV6ok+/Wzri9sGft/As+hoAwwoxxiUZ+7+9/SJeT46UmO0VtdumY/efp36+mMS7hrkyZjHnp3eZJq6ZDhGawr/LOmKfUt++GiltEfpN5vwGYxYoa1uwPaouCiEll5BSy4JLGyfAHfY95knM14i/k+Jkn6HzyUjxWQ6lcwsp4RPhJeK7u2QPDHpypPS20pcyYK1nThgrep9pk5m4ldnvbXZ9x6UEvtZPHYp59/mFFI6Utr7x/K7i8LG8LufkUXVRCCl5hJRaFlyOWNgKa58DXKR91t04x1aONEdqcaWghjFlDRqoSxadzV1ktjUh5ZWEzYkIJU+fGJpfdMhRqyC923Z5/5l5A7bW6zbkEMYIKWddABwrvrd68o24BdbL6fp+/UJK+r4V7hS8HHDNQfdZ/Hss62xYC/2evt0o94GKk3xaPI2BkJJO8S5VdDZ3kdnWhJTXHCljt+6x2ooU9rCimkN4y3sa4SaqXMeu9IWD299qUOL7IKS0JKSM1a6Gt15jKq5+YtrtgISUVELKVM0zt3MVFlLaPe647mr77QTzjkNGLX1yjRBSyhSdzV1ktjUh5bfnixmbWhjDY54vR+DdR+KdZ8W6TF2xKZlLJSY2q+nbKbE9SY2UNggXKsrFbK0eN95PvS5CSn7nKiHFC+VG+SFInCtzBekjhJQyCUDYSsy+bTclisy2JqT8loCHJ4NL90JKjufrI/HOF3Bu/XwpspgTK6iEFdKup3Bw/UIKR0o7Iun09i5LXOHjz7FzVk3FTAkpKdunJudqOyUcin2LaYuwqY1St9pPPDmza6l3ISV8ohoyTrhjxLP04UjZxqS123E8XEhJH3SHi1ZrZUJK3uLE5cSUOEGl9ROY4ttz3PE7CCltCCktuN+X5hbo4sa08dR9/5xCykxISRd0tepGWRUTTR60KDyLtoWUnEVn94vOS6Qo1IcjJTyY6l1ISf984Q6Guhwp4YXwXj8FKa6WQBlBpR8h5UJIEZsU2lp3vm3jcQvi+e6XkJJmHKxpCzAhpclBbW06ICSmKDxLSCm7Mp6r6GxIkdmYAKUvR0rY2E9IKSWknMuRcv++LoXjoNcDPEJKbiFFjZQWEtbWrpJjaVxdlLxbkQgphJSuhZSyBWbXLIIJh8Fv7Tva4lMg4UXaCT5eSMlTdLZUkdnWhBSOFI6UPIs8+YWU+z46FnWnvBIcE1I4UvqKB+bTxJRtLJoO+j4hhZByzMfHXdBzInvGS7+ppf/Fr4yHBWzPV2ZKFpltTUjJ50jpXUhZOVKSJ95xp2ZsfXUqFGQup3Fz5RpbCCntEC6OqtOY553m71+EFEJKt0JKv8qwI20fD2QzsUTfaSbBTDH4hU2MQ8IJcEzwDBwpHCnl5vaznNrz+rx5KTB3PhdT+nGkOLXn7ELK+Rb1Srg95qrjXUJKzUKKU3sOCtC5CtpdCViIJY5DPo2QElZ87XFwsT9gWRKJQT05UtrfbtKCkBKz0lTT/FnilJfX23Z4b98lm5jy07vvx2FUq5CiRooFvfa299RcF4WQ0oqQMgYL/6WOIY+9so3t9djr1uSOAhBTHIdMSIlR3B/97v1j5pjo/vtwpPTikuhdSKlJSC6ReIclBZdMK3mPRdwevp2YpG9PAsGRUi/nPPwgn2BRc10UQkrPQorDXCIDFG6UviezVVFaxYorCKDXhELKkKT9SxeZbU1I+e1541bPhk77eb7V8BpFiBIiaKk44Npmt+K0KVfZhy6FsVJiECGlt/GRyzn9omjZgxXaEVKmEwopg1y7/AdYs3NFfYuzC2lEuX4CqFRCSlgAf+8S2L8tJZ3LoBdHSkyg0kIyUZ8jZQh2RdRAzDaA0qtlt60/KQSVx/2hdWGsVI0kQkqdhD9/H7X3ahElj6g51kLfjxH6WhZSwnennLgEQt+qsNoW6fqBo5EJc0eOOWn39scWnd2flI4J770PR0rcz547nlvzBLYxRwfXMO61WJx46wOXLCJ+jDBWQ3uG98epgJCiRorFu7xX2oWh8LooRywQxozlZcfu+XRCSnjbnDjfPnaP4prp79ZXnb6dFYI5U3twpSBu4k8ppIQVOh0Dg8AlsQjUkyPl0u23WJuQErMCXMP+55YdNZtoEONOGRMKEUsl7TkWERI4UmodG8NPlrmOBVv/P/rPGDHocvC4mO4eehRSShbDr09IWZqcZxtInLlRzkB8wKfwLOoXUrbJawpKcPdPNGn3H/fkSImzd49d9vNcq+Fxycvx77r1ejpx8dacNNA/+p3E9cVhZ78hpNRGK0VRcybbKQTzuENCxoOdekuV32WKd9uykBIetyznzI36tdZJdo+b5BQKQxtCSshEeb2H/f9uqOT7rM+REpdQ1e06rM2REjfnH7u9JzxhWTo5vvn7+4+z9B+7ehjjptnbDwkpPeUec3VjfszCY0xME1sX5cgcKebeS43nMflxy0JKzLOfzrHf97G3Et18AZ9aKadVXg9NMNfk7zxsMp92/pv0gV9PjpR4QX/orJ/nFlLaXAlOKUAc3yfS7btvdWtc+Dc/BfwuNVJqIs7FUd/2gbgxdTzgG6oj4a351LE4kaoHIWXo5vusMMCrrW6KJLfeCcJxyEg7/uT4rvO78saKvsv6HCk3Ub+/8b5GIaW10x1u97x0M06HjjmP+nncgtgxRWdLb0niSOknrqxxxTuuP4f1sx62RtV8Yl9s7tO6kNKLA1SCLMEluFXuSlF4tmS/WrMkzHFB0DFJfm+OlNjVn1pP06qtRkoa8bD8/Bre/+oU2cKe5+fxL+bEjiOSqphtHSHt2Z+Q0vbpgb1t5dzG+XKuyhbF05bG9RR5T+tCSty8coLTTftOjrlR8vSXuaCjqC3RzslQ5cagXN92vvFwzHS/fTlS0oj7Yzf9PLfzI9YBVFJAjksa6lxUCe3rPwspQzMx03avZduzPyGl3RMpe/ye47/B1xPP2JpiNeVHcfPQUGlb9iSk9FEQusLVKG6UM/L75Hfmuinq8bQupMRN6OX7Rm+OlFtSsTT1LV778bMAuFYhJX4xpUyhwtik4bcg86hkNCwG+zkJind0ldmyFXdqUXgS2F+NlHaLOvaanMVtP3y9b4fnb0t17y/uxL65aodyD0JKXJ+uY4zKEqfktbHnrImydj259LmScBZxxQlRrQsp8YlIKwVD63WkpFoJKuUS2+bS6WmfrFVISSMezpXbq6eX+tsRMUPYWPO8T8R/OyXEu/mQRbK6HSnraRYNW6zPtK+fTVlFoqOK2tY7xqed6z/m9BTxXw9CSpxwd2xOvvWt4W3cyPCDe3ajTLZZFFlNWE7sPuGEOm4CXbMmbjGnX5TuEz06Um6BzJzk3ecV3YZ/7jOPkLIWmcvi44E5S6AUH9C+tsJ7e/5yWzRznYaQRgzOI45tot1xjplahZTehYW04u3Y+fM9b8/Yk45q7Svxc9BYyZzTp5DSolN4+w6nf76rylag6r64UUqKKcQThWfLr0TkFFJSHwefV/Tp05GSdnyZ335WqgDy+nMeBVutOlLSBUlLMiHiq0iVO3C7D+LT9pfUQuEr31KaMWxJ9h5Kt2ebQspUNIk8MqGOedYW4qvY8fSnZ4zrJ3U7puPn+/j5J17o7VdISReTjdkdrDcBZbnr/xUN2Nwo2KMir1wpSDwerdkDgnRj5JT51JU+HSnp2+GWIIf2nVsyOO0OmGoXUnIIVyHv+bd3nOvdPZ7H4vrL8/ecvz5IOmfdFCyopG3PMcG7r7NGymuxVLrtDVuiMRw45/d1Wk/69hwz/Mxt++nRV55+cf+ce0WFTfgas7jsexJS0rXR8vacKefWrQ0vT+aaOfUkzo0CwhxXSrv9J7eQks61lzdY7dmRknbi/jqJz2+B0/W+Pgd5H0VjP/7/j4Rj66NzcJ9sQUhJk8x9FSKmf8SIn97xFgAN7797Tva794wRz597uXuOve3x8ayPV8nyjSfp5+a97Tklbc8U30GtjpR0sfn8z4rv5/a5H8+mQxd8eqvvkSeG+C6Yxm+nX74sbpb+s0R9p+dz/Nex6jZOLS8sCK+nF1LSxsbf59ZX5tfPbbjdy0fcsPw6NiZUbOaOE9iZG+UAvverlZjCGdW0kJImgc8fgPfuSLlN3CXqMa3vbT4H/b6Wa6SUE8aXT+94rkbIfl1AugXoW8B7+adQ7ec/t+vy/vemRP13f3yTP+Zbor6Z0lsSahZS8hwAsT5pm7GZ+b7FhdLYGOLzs9Z5OEj6MSz2dJjXx6r980lov+1NSEm/4PJIWJnef8fXa/ok0C+7+17lD3/UCT6On61LfVd8Vn/sQ0hJszoyVnyPbThS0q3G5b96cKTcgvZWXYZhR3vWHxuFuxzbXkBL6+6sWUjZ7q/kd1deSIk95ra1xanYrTjpFnXaWeyub9fEGNWWPQopbe5ESCCk9J/ocqMcP2kMaqTokwUG5LWIkBK7ClS32NOOI6UVMaUXIaVdMWX5E16Lp3Yh5ZKgPedTiyjhQsraYJ2iOoWUHHVDaiZOOFo+bV3oJSZeX9q6Uc9YdXOWE1JqbqcCQkr96lGKZNvqf/sKPFcKIaUekSJuhXCqfF99W46UFhYEehJS2hNT4pLuuuetlMd6zs0EvTnG+NodKWWTk/GAuT7NVpfe45uzLy7WMc/fj0GElNbFlDlF8Nm+ktnqsV7nS4yJKSGnLBBS6nKkxI2dZQS0MzlS7ttkPomQsh7qamtjPI+f/+t8xiV5stuGODZlG99rF1LKJpFlhZS4PKRdd2+607PO5dI+1oH6qNgvIaVtsXA+w0M6bvbsLoOeC8+iTUdKmOLewpG1bTpSak7we3Ok1BPUPhca0pzmMlb4bEPGMe1SaXsOmY+Lr19IKZd8j4WfaTxljK9+YPh8dsw4NT+MVwgpv80ptdexG2MDoL4/TCv+9dFPlXHHcp9ZSAkbQ8eK7619R8rnvlOPO2XuWki5dzMsf3pzLdQjpCxZHRmP2/M8z1x7jZSyfXIsPHYsp42f+j4tNe+3VDZB/3keJ6S0NKfczy1R7+b3PbFrB0VBuVEo8QrPElLqCQLrFnn6cKQ8Xg2ZD0noX1lF70FIuR/Xp8MElByuheP6z/2zHVMwcDioPZfiz9yKI6VMEtmC4N9H7NT/gnbetiyToD93NxJSWojH7t2qSd7JGWpVcKOYQBSePZuQshb/7l+/x6lo0HdmR8rzpHApkgC+2tYxQkqtc9wW3I4FAqYtKLr+vpzf1s3hNBVdAS3xbK88e7n2PO6ZWxNS7r+zpWEhZT71YimHdvx8lseB+rqYS0iJEVSWQuLJ/PY7k8VMxxSYXXf87+sfbhRiikkEW/+47LpKB7ZbIPT7fZVu322cvwRdJX9f6fdya68UieHyT/IX44YI6edH9PXwAPeSSIRY3n/OJXvNjN+DwI9nWhOKCNuz7RHijnn2sZv2vE9S2vwGb2PaFC1ilUy6bjV5Lk3MHfnHk3NfaWpaDZFz+7S7b4W2397+20qMFR6PLQn1htu8kvz5z3FyyqLuRFPJspN8YpwAAMLnw+skuwUoHwHYRxD29Zo+/fdtcj7aLdDiu94Cp+FLQt7u+/65D732XNd/12I/Cn/uwfdTtE2mp23Rav8DXv8Wno1N4z8Cou/geFHltfHrvu0+5pSPNswuHOV3o6wV/FxulNYGPCf5EAABAAAAQMLqFBS8yO/Fj89zHDJFHAAAAAAqIX09ilUiimQ4yUfhWQAAAACohrDK0KskFEUJE/vWP70VniUGAgAAAMDhCeoZCnpKQM8rpnClAAAAAAASUe855avkE984x8lSvxeedRwyAAAAAByWlE4NCSVr4N+ReOq3vV0jhxUAAAAAlCb/cce2QiCnmDI7DhkAAAAAIBG1DQKvcB4h0ClUAAAAAFCJkDJ0f1m1770PrwrPAgAAAAAAfOUqnFyvzYnyIZadXUhxGhUAAAAAAKfnKg5ct2Rtosn4Xlx2et+Othx4+hNXCgAAAAAAOFAwuXeZjJ8Ek78uhWcBAAAAADinYHJ1mNy7TIgmKQvPAgAAAACABgWTD4fJd5fJSvDgSgEAAAAA4LyiydVhsokll/crpI6JS+FZAAAAAAA6E0zuT8v56jAhnCg8CwAAAADAyfhex2RSx6SxLT5cKQAAAAAAJOa7y0Qdk36uUQcHAAAAACBUMLmvZTKoY6LwLAAAAAAABJOfXSbEhTO6UmzxAQAAAADgz6NtOROXievbxZUCAAAAADidYHK9vjtMiCUuxyEDAAAAAE4umtyflkM0cTkOGQAAAABAMPnkMBk+iSZOy3HlKTx7FegAAAAAAKheMLmvY+K0HJfjkAEAAAAABJMfTsuZJfAuhWcBAAAAAAST73VMuExcjkMGAAAAAJxcNPl+Ws6qlomLKwUAAAAAcG7B5OoyuRdMOExcfRae5UoBAAAAAOwSTr6LJusDp8m649r7912uI675/XIcMgAAAADgRRHl85Ydl+tM1+f+DwAAAADYzf8CCGJOMXzXA0oAAAAASUVORK5CYII=;" parent="1" vertex="1">
          <mxGeometry x="780.21" y="650.24" width="345.45" height="61.85" as="geometry" />
        </mxCell>
        <mxCell id="NPqBEZIJGz9gFvAMpIGe-2089" style="rounded=0;orthogonalLoop=1;jettySize=auto;html=1;exitX=0.5;exitY=1;exitDx=0;exitDy=0;entryX=0.5;entryY=0;entryDx=0;entryDy=0;fontSize=20;fillColor=#1ba1e2;strokeColor=#006EAF;" edge="1" parent="1" source="NPqBEZIJGz9gFvAMpIGe-2081" target="VrKKvqY3dBjmQD-Xjk8_-2102">
          <mxGeometry relative="1" as="geometry" />
        </mxCell>
        <mxCell id="NPqBEZIJGz9gFvAMpIGe-2081" value="" style="shape=image;verticalLabelPosition=bottom;labelBackgroundColor=default;verticalAlign=top;aspect=fixed;imageAspect=0;image=data:image/svg+xml,PHN2ZyB2ZXJzaW9uPSIxLjEiIGlkPSJMYXllcl8xIiB4bWxucz0iaHR0cDovL3d3dy53My5vcmcvMjAwMC9zdmciIHg9IjAiIHk9IjAiIHZpZXdCb3g9IjAgMCAxNjg0LjQgNDAzLjUiIHhtbDpzcGFjZT0icHJlc2VydmUiPjxzdHlsZT4uc3Qwe2ZpbGw6IzAwYTBmZn08L3N0eWxlPjxwYXRoIGNsYXNzPSJzdDAiIGQ9Ik02ODUuNCAzOTQuOUg0NjVjLTgxIDAtMTE0LjEtNjguNS0xMTYuNS0xMTQuNSAwLS43LS4xLTEuMy0uMS0ydi03NC45YzAtMzkuOSAxNi44LTY0LjQgMzAuOS03Ny44IDMyLjMtMzAuNiA3Ny4xLTMwLjggODYuNC0zMC44aDEwOS4xbDczLjIgNzVINDY1Yy0uNyAwLTEuMy4xLTIgLjEtNS4yIDAtMjMuMSAxLjQtMzIuMiAxMC4zLTEuOCAxLjgtNy40IDcuMi03LjQgMjMuMnY3My42YzEgMTMuMiA3LjUgNDIuOCA0MS42IDQyLjhoMTgzLjRWNi45aDc1djM1MC41YzAgMjAuNy0xNy4yIDM3LjUtMzggMzcuNW0zNjEuMyAwaC0xODNjLTgxIDAtMTEzLjktNjguNS0xMTYuMy0xMTQuNXYtNzYuOWMwLTM5LjkgMTYuNy02NC40IDMwLjgtNzcuOCAzMi4yLTMwLjYgNzYuOS0zMC44IDg2LjItMzAuOGgyMTkuOGMyMC43IDAgMzcuMiAxNy4yIDM3LjIgMzcuOXYyNjIuMWgtNzV2LTIyNUg4NjMuN2MtLjcgMC0xLjMuMS0yIC4xLTUuMiAwLTIyLjkgMS40LTMyLjEgMTAuMy0xLjggMS44LTcuMiA3LjItNy4yIDIzLjJ2NzMuNmMxIDEzLjIgNy4yIDQyLjggNDEuMyA0Mi44aDEwNi44bDc2LjIgNzV6bTU1NC43IDBoLTE4M2MtODEgMC0xMTMuOC02OC41LTExNi4yLTExNC41IDAtLjcuMi0xLjMuMi0ydi03NC45YzAtMzkuOSAxNi42LTY0LjQgMzAuNi03Ny44IDMyLjItMzAuNiA3Ni43LTMwLjggODYuMS0zMC44aDIxOS44YzIwLjcgMCAzNy41IDE3LjIgMzcuNSAzNy45djI2Mi4xaC03NXYtMjI1aC0xODNjLS43IDAtMS4zLjEtMiAuMS01LjMtLjEtMjMuMyAxLjQtMzIuNCAxMC4zLTEuOCAxLjgtNy42IDcuMi03LjYgMjMuMnY3My42YzEgMTMuMiA3LjkgNDIuOCA0MiA0Mi44aDEwNy44bDc1LjIgNzV6Ii8+PHBhdGggY2xhc3M9InN0MCIgZD0iTTEyNjMuNCAzMTkuOWgtMTBjLTE2LjkgMC0yMi4zLTcuNy0yNC4xLTkuNS03LjktOC4xLTkuMi0yNS42LTkuMS0yOS45IDAtLjcuMi0xLjQuMi0yLjFWMTMzLjloNTN2LTc0aC01M3YtNTNoLTc1djI3MC45YzAgOS4yIDAgNTMgMjkuMyA4NCAxMy40IDE0LjIgMzcuOSAzMy4yIDc4LjcgMzMuMmg4NWwtNzUtNzUuMXptLTg4Mi42IDc1SDEyMy45Yy04MSAwLTExNC02OC41LTExNi40LTExNC41IDAtLjctLjEtMS4zLS4xLTJ2LTc0LjljMC0zOS45IDE2LjgtNjQuNCAzMC45LTc3LjggMzIuMi0zMC42IDc3LTMwLjggODYuMy0zMC44aDI1NC4ybC03NS4yIDc1SDEyMy45Yy0uNyAwLTEuMy4xLTIgLjEtNS4yIDAtMjMgMS40LTMyLjIgMTAuMy0xLjggMS44LTcuMyA3LjItNy4zIDIzLjJ2NzMuNmMxIDEzLjIgNy40IDQyLjggNDEuNSA0Mi44aDE3OS43bDc3LjIgNzV6Ii8+PHBhdGggY2xhc3M9InN0MCIgZD0iTTIyOC43IDI0NS4xbDc0LjcgNzQuOVYxNjkuN3oiLz48L3N2Zz4=;" vertex="1" parent="1">
          <mxGeometry x="993.5" y="256.78" width="123.66" height="29.73" as="geometry" />
        </mxCell>
        <mxCell id="NPqBEZIJGz9gFvAMpIGe-2092" value="&lt;font style=&quot;font-size: 13px&quot; color=&quot;#0A0A0A&quot;&gt;Â© DOUCOURE 2022&lt;br&gt;&lt;/font&gt;" style="text;html=1;resizable=0;autosize=1;align=center;verticalAlign=middle;points=[];fillColor=none;strokeColor=none;rounded=0;shadow=0;glass=0;dashed=1;dashPattern=1 2;sketch=0;fontSize=20;fontColor=#FFB570;" vertex="1" parent="1">
          <mxGeometry x="49" y="793" width="131" height="30" as="geometry" />
        </mxCell>
      </root>
    </mxGraphModel>
  </diagram>
</mxfile>
